%FSLAX25Y25*%
%MOIN*%
G70*
G01*
G75*
G04 Layer_Physical_Order=2*
G04 Layer_Color=16711680*
%ADD10C,0.01200*%
%ADD11C,0.01100*%
%ADD12C,0.00800*%
%ADD13C,0.00800*%
%ADD14C,0.01200*%
%ADD15C,0.01000*%
%ADD16C,0.02000*%
%ADD17R,0.05512X0.04331*%
%ADD18R,0.04331X0.05512*%
%ADD19O,0.02362X0.05906*%
%ADD20R,0.09055X0.02362*%
%ADD21O,0.02756X0.09843*%
%ADD22R,0.07100X0.07900*%
%ADD23O,0.01181X0.07087*%
%ADD24O,0.07087X0.01181*%
%ADD25O,0.07087X0.02165*%
%ADD26R,0.01772X0.08071*%
%ADD27R,0.01772X0.08071*%
%ADD28R,0.12362X0.09055*%
%ADD29R,0.02000X0.02000*%
%ADD30R,0.04724X0.07874*%
%ADD31R,0.05906X0.05906*%
%ADD32C,0.05906*%
%ADD33R,0.05906X0.05906*%
%ADD34C,0.14961*%
%ADD35R,0.06299X0.06299*%
%ADD36C,0.06299*%
%ADD37C,0.12992*%
%ADD38C,0.05000*%
%ADD39C,0.19685*%
%ADD40C,0.04000*%
G36*
X693777Y306224D02*
X206224D01*
Y693777D01*
X693777D01*
Y306224D01*
D02*
G37*
%LPC*%
G36*
X389500Y478500D02*
X386838D01*
X386882Y478165D01*
X387205Y477386D01*
X387718Y476718D01*
X388386Y476205D01*
X389165Y475882D01*
X389500Y475838D01*
Y478500D01*
D02*
G37*
G36*
X393162D02*
X390500D01*
Y475838D01*
X390835Y475882D01*
X391614Y476205D01*
X392282Y476718D01*
X392795Y477386D01*
X393118Y478165D01*
X393162Y478500D01*
D02*
G37*
G36*
X389500Y482162D02*
X389165Y482118D01*
X388386Y481795D01*
X387718Y481282D01*
X387205Y480614D01*
X386882Y479835D01*
X386838Y479500D01*
X389500D01*
Y482162D01*
D02*
G37*
G36*
X435456Y477818D02*
X432500D01*
Y475453D01*
X435456D01*
Y477818D01*
D02*
G37*
G36*
X441500D02*
X438544D01*
Y475453D01*
X441500D01*
Y477818D01*
D02*
G37*
G36*
X445456D02*
X442500D01*
Y475453D01*
X445456D01*
Y477818D01*
D02*
G37*
G36*
X417327Y483807D02*
X414665D01*
X414709Y483471D01*
X415031Y482693D01*
X415544Y482025D01*
X416213Y481512D01*
X416991Y481189D01*
X417327Y481145D01*
Y483807D01*
D02*
G37*
G36*
X420988D02*
X418327D01*
Y481145D01*
X418662Y481189D01*
X419441Y481512D01*
X420109Y482025D01*
X420622Y482693D01*
X420944Y483471D01*
X420988Y483807D01*
D02*
G37*
G36*
X456500Y484500D02*
X453838D01*
X453882Y484165D01*
X454205Y483386D01*
X454718Y482718D01*
X455386Y482205D01*
X456165Y481882D01*
X456500Y481838D01*
Y484500D01*
D02*
G37*
G36*
X390500Y482162D02*
Y479500D01*
X393162D01*
X393118Y479835D01*
X392795Y480614D01*
X392282Y481282D01*
X391614Y481795D01*
X390835Y482118D01*
X390500Y482162D01*
D02*
G37*
G36*
X366000Y556684D02*
X365046Y556559D01*
X364158Y556191D01*
X363395Y555605D01*
X362809Y554842D01*
X362441Y553954D01*
X362316Y553000D01*
X362441Y552046D01*
X362809Y551158D01*
X363395Y550395D01*
X364158Y549809D01*
X364674Y549595D01*
Y548642D01*
X364665D01*
X364805Y546869D01*
X365220Y545140D01*
X365900Y543496D01*
X366830Y541980D01*
X367985Y540627D01*
X367992Y540634D01*
X423002Y485624D01*
X422882Y485335D01*
X422772Y484500D01*
X422882Y483665D01*
X423205Y482886D01*
X423718Y482218D01*
X424386Y481705D01*
X425165Y481382D01*
X426000Y481272D01*
X426835Y481382D01*
X427614Y481705D01*
X428282Y482218D01*
X428795Y482886D01*
X428883Y483099D01*
X429124Y483131D01*
X429396D01*
X429705Y482386D01*
X430218Y481718D01*
X430886Y481205D01*
X431665Y480882D01*
X432000Y480838D01*
Y483999D01*
Y487162D01*
X431665Y487118D01*
X430886Y486795D01*
X430218Y486282D01*
X429705Y485614D01*
X429617Y485401D01*
X429376Y485369D01*
X429104D01*
X428795Y486114D01*
X428282Y486782D01*
X427614Y487295D01*
X426835Y487618D01*
X426000Y487728D01*
X425165Y487618D01*
X424876Y487498D01*
X369866Y542508D01*
X369817Y542541D01*
X368773Y543813D01*
X367970Y545316D01*
X367475Y546946D01*
X367314Y548584D01*
X367325Y548642D01*
Y549595D01*
X367842Y549809D01*
X368605Y550395D01*
X369191Y551158D01*
X369559Y552046D01*
X369684Y553000D01*
X369559Y553954D01*
X369191Y554842D01*
X368605Y555605D01*
X367842Y556191D01*
X366954Y556559D01*
X366000Y556684D01*
D02*
G37*
G36*
X435662Y483500D02*
X433000D01*
Y480838D01*
X433335Y480882D01*
X434114Y481205D01*
X434782Y481718D01*
X435295Y482386D01*
X435618Y483165D01*
X435662Y483500D01*
D02*
G37*
G36*
X431500Y477818D02*
X428544D01*
Y475453D01*
X431500D01*
Y477818D01*
D02*
G37*
G36*
X618500Y470162D02*
X618165Y470118D01*
X617386Y469795D01*
X616718Y469282D01*
X616205Y468614D01*
X615882Y467835D01*
X615838Y467500D01*
X618500D01*
Y470162D01*
D02*
G37*
G36*
X619500D02*
Y467500D01*
X622162D01*
X622118Y467835D01*
X621795Y468614D01*
X621282Y469282D01*
X620614Y469795D01*
X619835Y470118D01*
X619500Y470162D01*
D02*
G37*
G36*
X565500Y471162D02*
X565165Y471118D01*
X564386Y470795D01*
X563718Y470282D01*
X563205Y469614D01*
X562882Y468835D01*
X562838Y468500D01*
X565500D01*
Y471162D01*
D02*
G37*
G36*
X622162Y466500D02*
X619500D01*
Y463838D01*
X619835Y463882D01*
X620614Y464205D01*
X621282Y464718D01*
X621795Y465386D01*
X622118Y466165D01*
X622162Y466500D01*
D02*
G37*
G36*
X565500Y467500D02*
X562838D01*
X562882Y467165D01*
X563205Y466386D01*
X563718Y465718D01*
X564386Y465205D01*
X565165Y464882D01*
X565500Y464838D01*
Y467500D01*
D02*
G37*
G36*
X569162D02*
X566500D01*
Y464838D01*
X566835Y464882D01*
X567614Y465205D01*
X568282Y465718D01*
X568795Y466386D01*
X569118Y467165D01*
X569162Y467500D01*
D02*
G37*
G36*
X425456Y477818D02*
X422500D01*
Y475453D01*
X425456D01*
Y477818D01*
D02*
G37*
G36*
X451500D02*
X448544D01*
Y475453D01*
X451500D01*
Y477818D01*
D02*
G37*
G36*
X455456D02*
X452500D01*
Y475453D01*
X455456D01*
Y477818D01*
D02*
G37*
G36*
X566500Y471162D02*
Y468500D01*
X569162D01*
X569118Y468835D01*
X568795Y469614D01*
X568282Y470282D01*
X567614Y470795D01*
X566835Y471118D01*
X566500Y471162D01*
D02*
G37*
G36*
X445456Y474453D02*
X438544D01*
Y472266D01*
X438544Y472266D01*
X438544D01*
X438544Y472087D01*
Y471913D01*
D01*
D01*
D01*
X438544D01*
D01*
Y470781D01*
X435456D01*
Y471734D01*
X435456Y471734D01*
D01*
D01*
X435456Y471913D01*
Y471934D01*
Y472000D01*
X435456Y472087D01*
D01*
X435456Y472266D01*
X435456Y472266D01*
X435456D01*
Y474453D01*
X428544D01*
Y472266D01*
X428544Y472266D01*
X428544D01*
X428544Y472087D01*
Y471913D01*
D01*
D01*
D01*
X428544D01*
D01*
Y470781D01*
X425456D01*
Y471734D01*
X425456Y471734D01*
D01*
D01*
X425456Y471913D01*
Y471934D01*
Y472000D01*
X425456Y472087D01*
D01*
X425456Y472266D01*
X425456Y472266D01*
X425456D01*
Y474453D01*
X418544D01*
Y472266D01*
X418544Y472266D01*
X418544D01*
X418544Y472087D01*
Y471913D01*
D01*
D01*
D01*
X418544D01*
D01*
Y466182D01*
X425456D01*
Y467314D01*
X428544D01*
Y466182D01*
X430285D01*
X430448Y464529D01*
X431033Y462600D01*
X431525Y461680D01*
X431382Y461335D01*
X431272Y460500D01*
X431382Y459665D01*
X431705Y458886D01*
X432218Y458218D01*
X432886Y457705D01*
X433665Y457382D01*
X434500Y457272D01*
X435335Y457382D01*
X436114Y457705D01*
X436782Y458218D01*
X437295Y458886D01*
X437618Y459665D01*
X437728Y460500D01*
X437618Y461335D01*
X437295Y462114D01*
X436782Y462782D01*
X436114Y463295D01*
X435335Y463618D01*
X434500Y463728D01*
X434353Y463708D01*
X434236Y463926D01*
X433848Y465205D01*
X433788Y465811D01*
X434124Y466182D01*
X435456D01*
Y467314D01*
X438544D01*
Y466182D01*
X445456D01*
Y467314D01*
X448544D01*
Y466182D01*
X455456D01*
Y471734D01*
X455456Y471734D01*
D01*
D01*
X455456Y471913D01*
Y471934D01*
Y472000D01*
X455456Y472087D01*
D01*
X455456Y472266D01*
X455456Y472266D01*
X455456D01*
Y474453D01*
X448544D01*
Y472266D01*
X448544Y472266D01*
X448544D01*
X448544Y472087D01*
Y471913D01*
D01*
D01*
D01*
X448544D01*
D01*
Y470781D01*
X445456D01*
Y471734D01*
X445456Y471734D01*
D01*
D01*
X445456Y471913D01*
Y471934D01*
Y472000D01*
X445456Y472087D01*
D01*
X445456Y472266D01*
X445456Y472266D01*
X445456D01*
Y474453D01*
D02*
G37*
G36*
X421500Y477818D02*
X418544D01*
Y475453D01*
X421500D01*
Y477818D01*
D02*
G37*
G36*
X460162Y484500D02*
X457500D01*
Y481838D01*
X457835Y481882D01*
X458614Y482205D01*
X459282Y482718D01*
X459795Y483386D01*
X460118Y484165D01*
X460162Y484500D01*
D02*
G37*
G36*
X420662Y506500D02*
X418000D01*
Y503838D01*
X418335Y503882D01*
X419114Y504205D01*
X419782Y504718D01*
X420295Y505386D01*
X420618Y506165D01*
X420662Y506500D01*
D02*
G37*
G36*
X684500Y507000D02*
X681838D01*
X681882Y506665D01*
X682205Y505886D01*
X682718Y505218D01*
X683386Y504705D01*
X684165Y504382D01*
X684500Y504338D01*
Y507000D01*
D02*
G37*
G36*
X688162D02*
X685500D01*
Y504338D01*
X685835Y504382D01*
X686614Y504705D01*
X687282Y505218D01*
X687795Y505886D01*
X688118Y506665D01*
X688162Y507000D01*
D02*
G37*
G36*
X439456Y506453D02*
X432544D01*
Y504266D01*
X432544Y504266D01*
X432544D01*
X432544Y504087D01*
Y503913D01*
D01*
D01*
D01*
X432544D01*
D01*
Y502325D01*
X429456D01*
Y503734D01*
X429456Y503734D01*
D01*
D01*
X429456Y503913D01*
Y503934D01*
Y504000D01*
X429456Y504087D01*
D01*
X429456Y504266D01*
X429456Y504266D01*
X429456D01*
Y506453D01*
X422544D01*
Y504266D01*
X422544Y504266D01*
X422544D01*
X422544Y504087D01*
Y503913D01*
D01*
D01*
D01*
X422544D01*
D01*
Y498182D01*
X429456D01*
Y499675D01*
X432544D01*
Y498182D01*
X434300D01*
X434408Y496806D01*
X434838Y495015D01*
X435543Y493314D01*
X436505Y491744D01*
X437701Y490343D01*
X437703Y490345D01*
X437869Y490235D01*
X437772Y489500D01*
X437882Y488665D01*
X438205Y487886D01*
X438718Y487218D01*
X439386Y486705D01*
X440165Y486382D01*
X441000Y486272D01*
X441835Y486382D01*
X442614Y486705D01*
X443282Y487218D01*
X443795Y487886D01*
X444118Y488665D01*
X444228Y489500D01*
X444141Y490158D01*
X445037Y490893D01*
X446470Y491659D01*
X447780Y492056D01*
X448182Y491759D01*
Y490544D01*
X453913D01*
X453913Y490544D01*
Y490544D01*
X453913D01*
X454087D01*
X454266Y490544D01*
X454266Y490544D01*
Y490544D01*
X456453D01*
Y493999D01*
Y497456D01*
X454266D01*
X454266Y497456D01*
Y497456D01*
X454087Y497456D01*
X454000D01*
X453913D01*
X453734Y497456D01*
X453734Y497456D01*
Y497456D01*
X452373D01*
Y498544D01*
X453913D01*
Y498544D01*
X454087D01*
X454266Y498544D01*
X454266Y498544D01*
Y498544D01*
X456453D01*
Y501999D01*
Y505456D01*
X454266D01*
X454266Y505456D01*
Y505456D01*
X454087Y505456D01*
X454000D01*
X453913D01*
X453734Y505456D01*
X453734Y505456D01*
Y505456D01*
X448182D01*
Y498544D01*
X449722D01*
Y497456D01*
X448182D01*
Y495621D01*
X447806Y495592D01*
X446015Y495162D01*
X444314Y494457D01*
X442744Y493495D01*
X441733Y492631D01*
X441000Y492728D01*
X440265Y492631D01*
X440155Y492797D01*
X440155D01*
X440123Y492798D01*
X439107Y494036D01*
X438341Y495470D01*
X437869Y497025D01*
X437792Y497811D01*
X438128Y498182D01*
X439456D01*
Y503734D01*
X439456Y503734D01*
D01*
D01*
X439456Y503913D01*
Y503934D01*
Y504000D01*
X439456Y504087D01*
D01*
X439456Y504266D01*
X439456Y504266D01*
X439456D01*
Y506453D01*
D02*
G37*
G36*
X459818Y505456D02*
X457453D01*
Y502500D01*
X459818D01*
Y505456D01*
D02*
G37*
G36*
X417000Y506500D02*
X414338D01*
X414382Y506165D01*
X414705Y505386D01*
X415218Y504718D01*
X415886Y504205D01*
X416665Y503882D01*
X417000Y503838D01*
Y506500D01*
D02*
G37*
G36*
X439456Y509818D02*
X436500D01*
Y507453D01*
X439456D01*
Y509818D01*
D02*
G37*
G36*
X417000Y510162D02*
X416665Y510118D01*
X415886Y509795D01*
X415218Y509282D01*
X414705Y508614D01*
X414382Y507835D01*
X414338Y507500D01*
X417000D01*
Y510162D01*
D02*
G37*
G36*
X418000D02*
Y507500D01*
X420662D01*
X420618Y507835D01*
X420295Y508614D01*
X419782Y509282D01*
X419114Y509795D01*
X418335Y510118D01*
X418000Y510162D01*
D02*
G37*
G36*
X425500Y509818D02*
X422544D01*
Y507453D01*
X425500D01*
Y509818D01*
D02*
G37*
G36*
X429456D02*
X426500D01*
Y507453D01*
X429456D01*
Y509818D01*
D02*
G37*
G36*
X435500D02*
X432544D01*
Y507453D01*
X435500D01*
Y509818D01*
D02*
G37*
G36*
X459818Y501500D02*
X457453D01*
Y498544D01*
X459818D01*
Y501500D01*
D02*
G37*
G36*
X456500Y488162D02*
X456165Y488118D01*
X455386Y487795D01*
X454718Y487282D01*
X454205Y486614D01*
X453882Y485835D01*
X453838Y485500D01*
X456500D01*
Y488162D01*
D02*
G37*
G36*
X457500D02*
Y485500D01*
X460162D01*
X460118Y485835D01*
X459795Y486614D01*
X459282Y487282D01*
X458614Y487795D01*
X457835Y488118D01*
X457500Y488162D01*
D02*
G37*
G36*
X459818Y493500D02*
X457453D01*
Y490544D01*
X459818D01*
Y493500D01*
D02*
G37*
G36*
X433000Y487162D02*
Y484500D01*
X435662D01*
X435618Y484835D01*
X435295Y485614D01*
X434782Y486282D01*
X434114Y486795D01*
X433335Y487118D01*
X433000Y487162D01*
D02*
G37*
G36*
X417327Y487469D02*
X416991Y487425D01*
X416213Y487102D01*
X415544Y486589D01*
X415031Y485921D01*
X414709Y485142D01*
X414665Y484807D01*
X417327D01*
Y487469D01*
D02*
G37*
G36*
X418327D02*
Y484807D01*
X420988D01*
X420944Y485142D01*
X420622Y485921D01*
X420109Y486589D01*
X419441Y487102D01*
X418662Y487425D01*
X418327Y487469D01*
D02*
G37*
G36*
X491456Y499818D02*
X488500D01*
Y497453D01*
X491456D01*
Y499818D01*
D02*
G37*
G36*
X497500D02*
X494544D01*
Y497453D01*
X497500D01*
Y499818D01*
D02*
G37*
G36*
X501456D02*
X498500D01*
Y497453D01*
X501456D01*
Y499818D01*
D02*
G37*
G36*
Y496453D02*
X494544D01*
Y494266D01*
X494544Y494266D01*
X494544D01*
X494544Y494087D01*
Y493913D01*
D01*
D01*
D01*
X494544D01*
D01*
Y492781D01*
X491456D01*
Y493734D01*
X491456Y493734D01*
D01*
D01*
X491456Y493913D01*
Y493934D01*
Y494000D01*
X491456Y494087D01*
D01*
X491456Y494266D01*
X491456Y494266D01*
X491456D01*
Y496453D01*
X484544D01*
Y494266D01*
X484544Y494266D01*
X484544D01*
X484544Y494087D01*
Y493913D01*
D01*
D01*
D01*
X484544D01*
D01*
Y488182D01*
X491021D01*
X491243Y487734D01*
X490957Y487361D01*
X490635Y486583D01*
X490525Y485748D01*
X490635Y484912D01*
X490957Y484134D01*
X491470Y483465D01*
X492138Y482952D01*
X492917Y482630D01*
X493752Y482520D01*
X494588Y482630D01*
X495366Y482952D01*
X496035Y483465D01*
X496548Y484134D01*
X496870Y484912D01*
X496980Y485748D01*
X496870Y486583D01*
X496548Y487361D01*
X496035Y488030D01*
X496086Y488182D01*
X501456D01*
Y493734D01*
X501456Y493734D01*
D01*
D01*
X501456Y493913D01*
Y493934D01*
Y494000D01*
X501456Y494087D01*
D01*
X501456Y494266D01*
X501456Y494266D01*
X501456D01*
Y496453D01*
D02*
G37*
G36*
X459818Y497456D02*
X457453D01*
Y494500D01*
X459818D01*
Y497456D01*
D02*
G37*
G36*
X487500Y499818D02*
X484544D01*
Y497453D01*
X487500D01*
Y499818D01*
D02*
G37*
G36*
X619653Y333653D02*
X616500D01*
Y330500D01*
X619653D01*
Y333653D01*
D02*
G37*
G36*
X677079Y338603D02*
X676168Y338513D01*
X674812Y338102D01*
X673561Y337434D01*
X672466Y336534D01*
X671566Y335438D01*
X670898Y334188D01*
X670487Y332832D01*
X670397Y331921D01*
X677079D01*
Y338603D01*
D02*
G37*
G36*
X678079D02*
Y331921D01*
X684760D01*
X684671Y332832D01*
X684259Y334188D01*
X683591Y335438D01*
X682692Y336534D01*
X681596Y337434D01*
X680346Y338102D01*
X678989Y338513D01*
X678079Y338603D01*
D02*
G37*
G36*
X497500Y333653D02*
X494347D01*
Y330500D01*
X497500D01*
Y333653D01*
D02*
G37*
G36*
X501653D02*
X498500D01*
Y330500D01*
X501653D01*
Y333653D01*
D02*
G37*
G36*
X615500D02*
X612347D01*
Y330500D01*
X615500D01*
Y333653D01*
D02*
G37*
G36*
X670961Y351000D02*
X667842D01*
Y347882D01*
X668296Y347941D01*
X669185Y348309D01*
X669948Y348895D01*
X670533Y349658D01*
X670901Y350546D01*
X670961Y351000D01*
D02*
G37*
G36*
X551842Y351500D02*
X548724D01*
X548784Y351046D01*
X549152Y350158D01*
X549737Y349395D01*
X550500Y348809D01*
X551389Y348441D01*
X551842Y348382D01*
Y351500D01*
D02*
G37*
G36*
X555961D02*
X552843D01*
Y348382D01*
X553296Y348441D01*
X554185Y348809D01*
X554948Y349395D01*
X555533Y350158D01*
X555901Y351046D01*
X555961Y351500D01*
D02*
G37*
G36*
X498000Y353684D02*
X497046Y353559D01*
X496158Y353191D01*
X495395Y352605D01*
X494809Y351842D01*
X494441Y350954D01*
X494316Y350000D01*
X494441Y349046D01*
X494809Y348158D01*
X495395Y347395D01*
X496158Y346809D01*
X497046Y346441D01*
X498000Y346316D01*
X498954Y346441D01*
X499842Y346809D01*
X500605Y347395D01*
X501191Y348158D01*
X501559Y349046D01*
X501684Y350000D01*
X501559Y350954D01*
X501191Y351842D01*
X500605Y352605D01*
X499842Y353191D01*
X498954Y353559D01*
X498000Y353684D01*
D02*
G37*
G36*
X616000D02*
X615046Y353559D01*
X614158Y353191D01*
X613395Y352605D01*
X612809Y351842D01*
X612441Y350954D01*
X612316Y350000D01*
X612441Y349046D01*
X612809Y348158D01*
X613395Y347395D01*
X614158Y346809D01*
X615046Y346441D01*
X616000Y346316D01*
X616954Y346441D01*
X617842Y346809D01*
X618605Y347395D01*
X619191Y348158D01*
X619559Y349046D01*
X619684Y350000D01*
X619559Y350954D01*
X619191Y351842D01*
X618605Y352605D01*
X617842Y353191D01*
X616954Y353559D01*
X616000Y353684D01*
D02*
G37*
G36*
X666843Y351000D02*
X663724D01*
X663784Y350546D01*
X664152Y349658D01*
X664737Y348895D01*
X665500Y348309D01*
X666389Y347941D01*
X666843Y347882D01*
Y351000D01*
D02*
G37*
G36*
X619653Y329500D02*
X616500D01*
Y326347D01*
X619653D01*
Y329500D01*
D02*
G37*
G36*
X677079Y330921D02*
X670397D01*
X670487Y330011D01*
X670898Y328654D01*
X671566Y327404D01*
X672466Y326308D01*
X673561Y325409D01*
X674812Y324741D01*
X676168Y324329D01*
X677079Y324240D01*
Y330921D01*
D02*
G37*
G36*
X684760D02*
X678079D01*
Y324240D01*
X678989Y324329D01*
X680346Y324741D01*
X681596Y325409D01*
X682692Y326308D01*
X683591Y327404D01*
X684259Y328654D01*
X684671Y330011D01*
X684760Y330921D01*
D02*
G37*
G36*
X521921Y331421D02*
X515240D01*
X515329Y330511D01*
X515741Y329154D01*
X516409Y327904D01*
X517308Y326808D01*
X518404Y325909D01*
X519654Y325241D01*
X521011Y324829D01*
X521921Y324740D01*
Y331421D01*
D02*
G37*
G36*
X223500Y334575D02*
X221846Y334445D01*
X220232Y334057D01*
X218699Y333422D01*
X217284Y332556D01*
X216022Y331478D01*
X214945Y330216D01*
X214077Y328801D01*
X213442Y327268D01*
X213055Y325654D01*
X212925Y324000D01*
X213055Y322346D01*
X213442Y320732D01*
X214077Y319199D01*
X214945Y317784D01*
X216022Y316522D01*
X217284Y315444D01*
X218699Y314578D01*
X220232Y313943D01*
X221846Y313555D01*
X223500Y313425D01*
X225154Y313555D01*
X226768Y313943D01*
X228301Y314578D01*
X229716Y315444D01*
X230978Y316522D01*
X232055Y317784D01*
X232923Y319199D01*
X233558Y320732D01*
X233945Y322346D01*
X234075Y324000D01*
X233945Y325654D01*
X233558Y327268D01*
X232923Y328801D01*
X232055Y330216D01*
X230978Y331478D01*
X229716Y332556D01*
X228301Y333422D01*
X226768Y334057D01*
X225154Y334445D01*
X223500Y334575D01*
D02*
G37*
G36*
X636921Y330921D02*
X630240D01*
X630329Y330011D01*
X630741Y328654D01*
X631409Y327404D01*
X632308Y326308D01*
X633404Y325409D01*
X634654Y324741D01*
X636011Y324329D01*
X636921Y324240D01*
Y330921D01*
D02*
G37*
G36*
X644603D02*
X637921D01*
Y324240D01*
X638832Y324329D01*
X640188Y324741D01*
X641438Y325409D01*
X642534Y326308D01*
X643434Y327404D01*
X644102Y328654D01*
X644513Y330011D01*
X644603Y330921D01*
D02*
G37*
G36*
X497500Y329500D02*
X494347D01*
Y326347D01*
X497500D01*
Y329500D01*
D02*
G37*
G36*
X501653D02*
X498500D01*
Y326347D01*
X501653D01*
Y329500D01*
D02*
G37*
G36*
X615500D02*
X612347D01*
Y326347D01*
X615500D01*
Y329500D01*
D02*
G37*
G36*
X529603Y331421D02*
X522921D01*
Y324740D01*
X523832Y324829D01*
X525188Y325241D01*
X526439Y325909D01*
X527534Y326808D01*
X528434Y327904D01*
X529102Y329154D01*
X529513Y330511D01*
X529603Y331421D01*
D02*
G37*
G36*
X562079D02*
X555397D01*
X555487Y330511D01*
X555898Y329154D01*
X556566Y327904D01*
X557466Y326808D01*
X558562Y325909D01*
X559812Y325241D01*
X561168Y324829D01*
X562079Y324740D01*
Y331421D01*
D02*
G37*
G36*
X569760D02*
X563079D01*
Y324740D01*
X563989Y324829D01*
X565346Y325241D01*
X566596Y325909D01*
X567692Y326808D01*
X568591Y327904D01*
X569259Y329154D01*
X569671Y330511D01*
X569760Y331421D01*
D02*
G37*
G36*
X666843Y355118D02*
X666389Y355059D01*
X665500Y354691D01*
X664737Y354105D01*
X664152Y353342D01*
X663784Y352454D01*
X663724Y352000D01*
X666843D01*
Y355118D01*
D02*
G37*
G36*
X573653Y429653D02*
X566347D01*
Y422347D01*
X573653D01*
Y429653D01*
D02*
G37*
G36*
X642653Y432153D02*
X635347D01*
Y424847D01*
X642653D01*
Y432153D01*
D02*
G37*
G36*
X592000Y442184D02*
X591046Y442059D01*
X590158Y441691D01*
X589395Y441105D01*
X588809Y440342D01*
X588441Y439454D01*
X588316Y438500D01*
X588441Y437546D01*
X588809Y436658D01*
X589395Y435895D01*
X590158Y435309D01*
X591046Y434941D01*
X592000Y434816D01*
X592954Y434941D01*
X593842Y435309D01*
X594605Y435895D01*
X595191Y436658D01*
X595559Y437546D01*
X595684Y438500D01*
X595559Y439454D01*
X595191Y440342D01*
X594605Y441105D01*
X593842Y441691D01*
X592954Y442059D01*
X592000Y442184D01*
D02*
G37*
G36*
X439500Y415662D02*
X439165Y415618D01*
X438386Y415295D01*
X437718Y414782D01*
X437205Y414114D01*
X436882Y413335D01*
X436838Y413000D01*
X439500D01*
Y415662D01*
D02*
G37*
G36*
X440500D02*
Y413000D01*
X443162D01*
X443118Y413335D01*
X442795Y414114D01*
X442282Y414782D01*
X441614Y415295D01*
X440835Y415618D01*
X440500Y415662D01*
D02*
G37*
G36*
X560000Y429684D02*
X559046Y429559D01*
X558158Y429191D01*
X557395Y428605D01*
X556809Y427842D01*
X556441Y426954D01*
X556316Y426000D01*
X556441Y425046D01*
X556809Y424158D01*
X557395Y423395D01*
X558158Y422809D01*
X559046Y422441D01*
X560000Y422316D01*
X560954Y422441D01*
X561842Y422809D01*
X562605Y423395D01*
X563191Y424158D01*
X563559Y425046D01*
X563684Y426000D01*
X563559Y426954D01*
X563191Y427842D01*
X562605Y428605D01*
X561842Y429191D01*
X560954Y429559D01*
X560000Y429684D01*
D02*
G37*
G36*
X283500Y465662D02*
X283165Y465618D01*
X282386Y465295D01*
X281718Y464782D01*
X281205Y464114D01*
X280882Y463335D01*
X280838Y463000D01*
X283500D01*
Y465662D01*
D02*
G37*
G36*
X284500D02*
Y463000D01*
X287162D01*
X287118Y463335D01*
X286795Y464114D01*
X286282Y464782D01*
X285614Y465295D01*
X284835Y465618D01*
X284500Y465662D01*
D02*
G37*
G36*
X618500Y466500D02*
X615838D01*
X615882Y466165D01*
X616205Y465386D01*
X616718Y464718D01*
X617386Y464205D01*
X618165Y463882D01*
X618500Y463838D01*
Y466500D01*
D02*
G37*
G36*
X605653Y442153D02*
X598347D01*
Y434847D01*
X605653D01*
Y442153D01*
D02*
G37*
G36*
X283500Y462000D02*
X280838D01*
X280882Y461665D01*
X281205Y460886D01*
X281718Y460218D01*
X282386Y459705D01*
X283165Y459382D01*
X283500Y459338D01*
Y462000D01*
D02*
G37*
G36*
X287162D02*
X284500D01*
Y459338D01*
X284835Y459382D01*
X285614Y459705D01*
X286282Y460218D01*
X286795Y460886D01*
X287118Y461665D01*
X287162Y462000D01*
D02*
G37*
G36*
X443162Y412000D02*
X440500D01*
Y409338D01*
X440835Y409382D01*
X441614Y409705D01*
X442282Y410218D01*
X442795Y410886D01*
X443118Y411665D01*
X443162Y412000D01*
D02*
G37*
G36*
X615000Y417500D02*
X590000D01*
Y357500D01*
X615000D01*
Y417500D01*
D02*
G37*
G36*
X557000Y377184D02*
X556046Y377059D01*
X555158Y376691D01*
X554395Y376105D01*
X553809Y375342D01*
X553441Y374454D01*
X553316Y373500D01*
X553441Y372546D01*
X553809Y371658D01*
X554015Y371390D01*
X544492Y361866D01*
X544485Y361873D01*
X543330Y360520D01*
X542401Y359004D01*
X541720Y357361D01*
X541310Y355653D01*
X538847D01*
Y348347D01*
X546153D01*
Y355653D01*
X544425D01*
X544127Y356054D01*
X544470Y357184D01*
X545273Y358687D01*
X546317Y359959D01*
X546366Y359992D01*
X556284Y369910D01*
X557000Y369816D01*
X557954Y369941D01*
X558842Y370309D01*
X559605Y370895D01*
X560191Y371658D01*
X560559Y372546D01*
X560684Y373500D01*
X560559Y374454D01*
X560191Y375342D01*
X559605Y376105D01*
X558842Y376691D01*
X557954Y377059D01*
X557000Y377184D01*
D02*
G37*
G36*
X570653Y377153D02*
X563347D01*
Y369847D01*
X570653D01*
Y377153D01*
D02*
G37*
G36*
X667842Y355118D02*
Y352000D01*
X670961D01*
X670901Y352454D01*
X670533Y353342D01*
X669948Y354105D01*
X669185Y354691D01*
X668296Y355059D01*
X667842Y355118D01*
D02*
G37*
G36*
X551842Y355618D02*
X551389Y355559D01*
X550500Y355191D01*
X549737Y354605D01*
X549152Y353842D01*
X548784Y352954D01*
X548724Y352500D01*
X551842D01*
Y355618D01*
D02*
G37*
G36*
X552843D02*
Y352500D01*
X555961D01*
X555901Y352954D01*
X555533Y353842D01*
X554948Y354605D01*
X554185Y355191D01*
X553296Y355559D01*
X552843Y355618D01*
D02*
G37*
G36*
X625000Y390662D02*
X624665Y390618D01*
X623886Y390295D01*
X623218Y389782D01*
X622705Y389114D01*
X622382Y388335D01*
X622338Y388000D01*
X625000D01*
Y390662D01*
D02*
G37*
G36*
X626000D02*
Y388000D01*
X628662D01*
X628618Y388335D01*
X628295Y389114D01*
X627782Y389782D01*
X627114Y390295D01*
X626335Y390618D01*
X626000Y390662D01*
D02*
G37*
G36*
X439500Y412000D02*
X436838D01*
X436882Y411665D01*
X437205Y410886D01*
X437718Y410218D01*
X438386Y409705D01*
X439165Y409382D01*
X439500Y409338D01*
Y412000D01*
D02*
G37*
G36*
X550000Y429684D02*
X549046Y429559D01*
X548158Y429191D01*
X547395Y428605D01*
X546809Y427842D01*
X546441Y426954D01*
X546316Y426000D01*
X546441Y425046D01*
X546809Y424158D01*
X547395Y423395D01*
X548158Y422809D01*
X548674Y422595D01*
Y380642D01*
X548686Y380584D01*
X548525Y378946D01*
X548030Y377316D01*
X547897Y377066D01*
X547000Y377184D01*
X546046Y377059D01*
X545158Y376691D01*
X544395Y376105D01*
X543809Y375342D01*
X543441Y374454D01*
X543316Y373500D01*
X543441Y372546D01*
X543809Y371658D01*
X544395Y370895D01*
X545158Y370309D01*
X546046Y369941D01*
X547000Y369816D01*
X547954Y369941D01*
X548842Y370309D01*
X549605Y370895D01*
X550191Y371658D01*
X550559Y372546D01*
X550684Y373500D01*
X550559Y374454D01*
X550191Y375342D01*
X550087Y375477D01*
X550100Y375496D01*
X550780Y377139D01*
X551195Y378869D01*
X551335Y380642D01*
X551326D01*
Y422595D01*
X551842Y422809D01*
X552605Y423395D01*
X553191Y424158D01*
X553559Y425046D01*
X553684Y426000D01*
X553559Y426954D01*
X553191Y427842D01*
X552605Y428605D01*
X551842Y429191D01*
X550954Y429559D01*
X550000Y429684D01*
D02*
G37*
G36*
X625000Y387000D02*
X622338D01*
X622382Y386665D01*
X622705Y385886D01*
X623218Y385218D01*
X623886Y384705D01*
X624665Y384382D01*
X625000Y384338D01*
Y387000D01*
D02*
G37*
G36*
X628662D02*
X626000D01*
Y384338D01*
X626335Y384382D01*
X627114Y384705D01*
X627782Y385218D01*
X628295Y385886D01*
X628618Y386665D01*
X628662Y387000D01*
D02*
G37*
G36*
X377000Y613000D02*
X374338D01*
X374382Y612665D01*
X374705Y611886D01*
X375218Y611218D01*
X375886Y610705D01*
X376665Y610382D01*
X377000Y610338D01*
Y613000D01*
D02*
G37*
G36*
X380662D02*
X378000D01*
Y610338D01*
X378335Y610382D01*
X379114Y610705D01*
X379782Y611218D01*
X380295Y611886D01*
X380618Y612665D01*
X380662Y613000D01*
D02*
G37*
G36*
X377000Y616662D02*
X376665Y616618D01*
X375886Y616295D01*
X375218Y615782D01*
X374705Y615114D01*
X374382Y614335D01*
X374338Y614000D01*
X377000D01*
Y616662D01*
D02*
G37*
G36*
X455672Y592839D02*
Y592826D01*
X427642D01*
Y592835D01*
X425869Y592695D01*
X424139Y592280D01*
X422496Y591600D01*
X420980Y590670D01*
X419627Y589515D01*
X419627Y589515D01*
X419485Y589373D01*
X419485Y589373D01*
X418330Y588020D01*
X417401Y586504D01*
X416720Y584861D01*
X416305Y583131D01*
X416165Y581358D01*
X416175D01*
Y577915D01*
X415886Y577795D01*
X415218Y577282D01*
X414705Y576614D01*
X414382Y575835D01*
X414272Y575000D01*
X414382Y574165D01*
X414705Y573386D01*
X415218Y572718D01*
X415886Y572205D01*
X416665Y571882D01*
X417500Y571772D01*
X418335Y571882D01*
X419114Y572205D01*
X419782Y572718D01*
X420295Y573386D01*
X420618Y574165D01*
X420728Y575000D01*
X420618Y575835D01*
X420295Y576614D01*
X419782Y577282D01*
X419114Y577795D01*
X418825Y577915D01*
Y581358D01*
X418814Y581416D01*
X418975Y583054D01*
X419470Y584684D01*
X420273Y586187D01*
X421317Y587459D01*
X421366Y587492D01*
X421508Y587634D01*
X421541Y587683D01*
X422813Y588727D01*
X424316Y589530D01*
X425946Y590025D01*
X426483Y590078D01*
X426604Y589593D01*
X425886Y589295D01*
X425218Y588782D01*
X424705Y588114D01*
X424382Y587335D01*
X424338Y587000D01*
X430662D01*
X430618Y587335D01*
X430295Y588114D01*
X429782Y588782D01*
X429114Y589295D01*
X428335Y589618D01*
X428335Y589618D01*
X428335D01*
X427912Y589938D01*
X427928Y590174D01*
X455672D01*
X455740Y590188D01*
X456985Y590024D01*
X457289Y589628D01*
X457272Y589500D01*
X457382Y588665D01*
X457705Y587886D01*
X458218Y587218D01*
X458886Y586705D01*
X459665Y586382D01*
X460500Y586272D01*
X461335Y586382D01*
X462114Y586705D01*
X462782Y587218D01*
X463295Y587886D01*
X463618Y588665D01*
X463728Y589500D01*
X463618Y590335D01*
X463295Y591114D01*
X462782Y591782D01*
X462114Y592295D01*
X461335Y592618D01*
X460500Y592728D01*
X459665Y592618D01*
X458886Y592295D01*
X458788Y592220D01*
X457265Y592682D01*
X455672Y592839D01*
D02*
G37*
G36*
X280653Y574153D02*
X277500D01*
Y571000D01*
X280653D01*
Y574153D01*
D02*
G37*
G36*
X427000Y586000D02*
X424338D01*
X424382Y585665D01*
X424705Y584886D01*
X425218Y584218D01*
X425886Y583705D01*
X426665Y583382D01*
X427000Y583338D01*
Y586000D01*
D02*
G37*
G36*
X430662D02*
X428000D01*
Y583338D01*
X428335Y583382D01*
X429114Y583705D01*
X429782Y584218D01*
X430295Y584886D01*
X430618Y585665D01*
X430662Y586000D01*
D02*
G37*
G36*
X432000Y633162D02*
X431665Y633118D01*
X430886Y632795D01*
X430218Y632282D01*
X429705Y631614D01*
X429382Y630835D01*
X429338Y630500D01*
X432000D01*
Y633162D01*
D02*
G37*
G36*
X433000D02*
Y630500D01*
X435662D01*
X435618Y630835D01*
X435295Y631614D01*
X434782Y632282D01*
X434114Y632795D01*
X433335Y633118D01*
X433000Y633162D01*
D02*
G37*
G36*
X270000Y638500D02*
X267338D01*
X267382Y638165D01*
X267705Y637386D01*
X268218Y636718D01*
X268886Y636205D01*
X269665Y635882D01*
X270000Y635838D01*
Y638500D01*
D02*
G37*
G36*
X435662Y629500D02*
X433000D01*
Y626838D01*
X433335Y626882D01*
X434114Y627205D01*
X434782Y627718D01*
X435295Y628386D01*
X435618Y629165D01*
X435662Y629500D01*
D02*
G37*
G36*
X378000Y616662D02*
Y614000D01*
X380662D01*
X380618Y614335D01*
X380295Y615114D01*
X379782Y615782D01*
X379114Y616295D01*
X378335Y616618D01*
X378000Y616662D01*
D02*
G37*
G36*
X447500Y617728D02*
X446665Y617618D01*
X445886Y617295D01*
X445218Y616782D01*
X444705Y616114D01*
X444585Y615826D01*
X443642D01*
Y615835D01*
X441869Y615695D01*
X440139Y615280D01*
X438496Y614600D01*
X436980Y613670D01*
X435627Y612515D01*
X435634Y612508D01*
X411992Y588866D01*
X411985Y588873D01*
X410830Y587520D01*
X409901Y586004D01*
X409220Y584361D01*
X408805Y582631D01*
X408665Y580858D01*
X408674D01*
Y572915D01*
X408386Y572795D01*
X407718Y572282D01*
X407205Y571614D01*
X406882Y570835D01*
X406772Y570000D01*
X406882Y569165D01*
X407205Y568386D01*
X407718Y567718D01*
X408386Y567205D01*
X409165Y566882D01*
X410000Y566772D01*
X410835Y566882D01*
X411614Y567205D01*
X412282Y567718D01*
X412795Y568386D01*
X413118Y569165D01*
X413228Y570000D01*
X413118Y570835D01*
X412795Y571614D01*
X412282Y572282D01*
X411614Y572795D01*
X411326Y572915D01*
Y580858D01*
X411314Y580916D01*
X411475Y582554D01*
X411970Y584184D01*
X412773Y585687D01*
X413817Y586959D01*
X413866Y586992D01*
X437508Y610634D01*
X437541Y610683D01*
X438813Y611727D01*
X440316Y612530D01*
X441946Y613025D01*
X443584Y613186D01*
X443642Y613174D01*
X444585D01*
X444705Y612886D01*
X445218Y612218D01*
X445886Y611705D01*
X446665Y611382D01*
X447500Y611272D01*
X448335Y611382D01*
X449114Y611705D01*
X449782Y612218D01*
X450295Y612886D01*
X450618Y613665D01*
X450728Y614500D01*
X450618Y615335D01*
X450295Y616114D01*
X449782Y616782D01*
X449114Y617295D01*
X448335Y617618D01*
X447500Y617728D01*
D02*
G37*
G36*
X432000Y629500D02*
X429338D01*
X429382Y629165D01*
X429705Y628386D01*
X430218Y627718D01*
X430886Y627205D01*
X431665Y626882D01*
X432000Y626838D01*
Y629500D01*
D02*
G37*
G36*
X386000Y556684D02*
X385046Y556559D01*
X384158Y556191D01*
X383395Y555605D01*
X382809Y554842D01*
X382441Y553954D01*
X382316Y553000D01*
X382441Y552046D01*
X382809Y551158D01*
X383395Y550395D01*
X384158Y549809D01*
X385046Y549441D01*
X386000Y549316D01*
X386954Y549441D01*
X387842Y549809D01*
X388605Y550395D01*
X389191Y551158D01*
X389559Y552046D01*
X389684Y553000D01*
X389559Y553954D01*
X389191Y554842D01*
X388605Y555605D01*
X387842Y556191D01*
X386954Y556559D01*
X386000Y556684D01*
D02*
G37*
G36*
X339653Y556653D02*
X332347D01*
Y549347D01*
X339653D01*
Y556653D01*
D02*
G37*
G36*
X345500Y552500D02*
X342382D01*
X342441Y552046D01*
X342809Y551158D01*
X343395Y550395D01*
X344158Y549809D01*
X345046Y549441D01*
X345500Y549382D01*
Y552500D01*
D02*
G37*
G36*
X376000Y556684D02*
X375046Y556559D01*
X374158Y556191D01*
X373395Y555605D01*
X372809Y554842D01*
X372441Y553954D01*
X372316Y553000D01*
X372441Y552046D01*
X372809Y551158D01*
X373395Y550395D01*
X374158Y549809D01*
X375046Y549441D01*
X376000Y549316D01*
X376954Y549441D01*
X377842Y549809D01*
X378605Y550395D01*
X379191Y551158D01*
X379559Y552046D01*
X379684Y553000D01*
X379559Y553954D01*
X379191Y554842D01*
X378605Y555605D01*
X377842Y556191D01*
X376954Y556559D01*
X376000Y556684D01*
D02*
G37*
G36*
X457456Y547818D02*
X454500D01*
Y545453D01*
X457456D01*
Y547818D01*
D02*
G37*
G36*
X277000Y554184D02*
X276046Y554059D01*
X275158Y553691D01*
X274395Y553105D01*
X273809Y552342D01*
X273441Y551454D01*
X273316Y550500D01*
X273441Y549546D01*
X273809Y548658D01*
X274395Y547895D01*
X275158Y547309D01*
X276046Y546941D01*
X277000Y546816D01*
X277954Y546941D01*
X278842Y547309D01*
X279605Y547895D01*
X280191Y548658D01*
X280559Y549546D01*
X280684Y550500D01*
X280559Y551454D01*
X280191Y552342D01*
X279605Y553105D01*
X278842Y553691D01*
X277954Y554059D01*
X277000Y554184D01*
D02*
G37*
G36*
X356000Y556684D02*
X355046Y556559D01*
X354158Y556191D01*
X353395Y555605D01*
X352809Y554842D01*
X352441Y553954D01*
X352316Y553000D01*
X352441Y552046D01*
X352809Y551158D01*
X353395Y550395D01*
X354158Y549809D01*
X355046Y549441D01*
X356000Y549316D01*
X356954Y549441D01*
X357842Y549809D01*
X358605Y550395D01*
X359191Y551158D01*
X359559Y552046D01*
X359684Y553000D01*
X359559Y553954D01*
X359191Y554842D01*
X358605Y555605D01*
X357842Y556191D01*
X356954Y556559D01*
X356000Y556684D01*
D02*
G37*
G36*
X276500Y570000D02*
X273347D01*
Y566847D01*
X276500D01*
Y570000D01*
D02*
G37*
G36*
X280653D02*
X277500D01*
Y566847D01*
X280653D01*
Y570000D01*
D02*
G37*
G36*
X276500Y574153D02*
X273347D01*
Y571000D01*
X276500D01*
Y574153D01*
D02*
G37*
G36*
X277000Y564184D02*
X276046Y564059D01*
X275158Y563691D01*
X274395Y563105D01*
X273809Y562342D01*
X273441Y561454D01*
X273316Y560500D01*
X273441Y559546D01*
X273809Y558658D01*
X274395Y557895D01*
X275158Y557309D01*
X276046Y556941D01*
X277000Y556816D01*
X277954Y556941D01*
X278842Y557309D01*
X279605Y557895D01*
X280191Y558658D01*
X280559Y559546D01*
X280684Y560500D01*
X280559Y561454D01*
X280191Y562342D01*
X279605Y563105D01*
X278842Y563691D01*
X277954Y564059D01*
X277000Y564184D01*
D02*
G37*
G36*
X349618Y552500D02*
X346500D01*
Y549382D01*
X346954Y549441D01*
X347842Y549809D01*
X348605Y550395D01*
X349191Y551158D01*
X349559Y552046D01*
X349618Y552500D01*
D02*
G37*
G36*
X345500Y556618D02*
X345046Y556559D01*
X344158Y556191D01*
X343395Y555605D01*
X342809Y554842D01*
X342441Y553954D01*
X342382Y553500D01*
X345500D01*
Y556618D01*
D02*
G37*
G36*
X346500D02*
Y553500D01*
X349618D01*
X349559Y553954D01*
X349191Y554842D01*
X348605Y555605D01*
X347842Y556191D01*
X346954Y556559D01*
X346500Y556618D01*
D02*
G37*
G36*
X273662Y638500D02*
X271000D01*
Y635838D01*
X271335Y635882D01*
X272114Y636205D01*
X272782Y636718D01*
X273295Y637386D01*
X273618Y638165D01*
X273662Y638500D01*
D02*
G37*
G36*
X223500Y690075D02*
X221846Y689945D01*
X220232Y689558D01*
X218699Y688923D01*
X217284Y688056D01*
X216022Y686978D01*
X214945Y685716D01*
X214077Y684301D01*
X213442Y682768D01*
X213055Y681154D01*
X212925Y679500D01*
X213055Y677846D01*
X213442Y676232D01*
X214077Y674699D01*
X214945Y673284D01*
X216022Y672022D01*
X217284Y670944D01*
X218699Y670078D01*
X220232Y669443D01*
X221846Y669055D01*
X223500Y668925D01*
X225154Y669055D01*
X226768Y669443D01*
X228301Y670078D01*
X229716Y670944D01*
X230978Y672022D01*
X232055Y673284D01*
X232923Y674699D01*
X233558Y676232D01*
X233945Y677846D01*
X234075Y679500D01*
X233945Y681154D01*
X233558Y682768D01*
X232923Y684301D01*
X232055Y685716D01*
X230978Y686978D01*
X229716Y688056D01*
X228301Y688923D01*
X226768Y689558D01*
X225154Y689945D01*
X223500Y690075D01*
D02*
G37*
G36*
X304000Y677684D02*
X303046Y677559D01*
X302158Y677191D01*
X301395Y676605D01*
X300809Y675842D01*
X300441Y674954D01*
X300316Y674000D01*
X300441Y673046D01*
X300809Y672158D01*
X301395Y671395D01*
X302158Y670809D01*
X303046Y670441D01*
X304000Y670316D01*
X304954Y670441D01*
X305842Y670809D01*
X306605Y671395D01*
X307191Y672158D01*
X307559Y673046D01*
X307684Y674000D01*
X307559Y674954D01*
X307191Y675842D01*
X306605Y676605D01*
X305842Y677191D01*
X304954Y677559D01*
X304000Y677684D01*
D02*
G37*
G36*
X303500Y683500D02*
X300347D01*
Y680347D01*
X303500D01*
Y683500D01*
D02*
G37*
G36*
X676000Y688075D02*
X674346Y687945D01*
X672732Y687558D01*
X671199Y686923D01*
X669784Y686056D01*
X668522Y684978D01*
X667445Y683716D01*
X666577Y682301D01*
X665942Y680768D01*
X665555Y679154D01*
X665425Y677500D01*
X665555Y675846D01*
X665942Y674232D01*
X666577Y672699D01*
X667445Y671284D01*
X668522Y670022D01*
X669784Y668945D01*
X671199Y668078D01*
X672732Y667443D01*
X674346Y667055D01*
X676000Y666925D01*
X677654Y667055D01*
X679268Y667443D01*
X680801Y668078D01*
X682216Y668945D01*
X683478Y670022D01*
X684555Y671284D01*
X685423Y672699D01*
X686058Y674232D01*
X686445Y675846D01*
X686575Y677500D01*
X686445Y679154D01*
X686058Y680768D01*
X685423Y682301D01*
X684555Y683716D01*
X683478Y684978D01*
X682216Y686056D01*
X680801Y686923D01*
X679268Y687558D01*
X677654Y687945D01*
X676000Y688075D01*
D02*
G37*
G36*
X400547Y657500D02*
X398182D01*
Y654544D01*
X400547D01*
Y657500D01*
D02*
G37*
G36*
Y661456D02*
X398182D01*
Y658500D01*
X400547D01*
Y661456D01*
D02*
G37*
G36*
X422299Y666826D02*
X420696Y666668D01*
X419154Y666200D01*
X417732Y665441D01*
X416487Y664419D01*
X415465Y663173D01*
X414705Y661752D01*
X414237Y660210D01*
X414190Y659733D01*
X409818D01*
Y661456D01*
X404266D01*
X404266Y661456D01*
Y661456D01*
X404087Y661456D01*
X404000D01*
X403913D01*
X403734Y661456D01*
X403734Y661456D01*
Y661456D01*
X401547D01*
Y657999D01*
Y654544D01*
X403913D01*
Y654544D01*
X404087D01*
X404266Y654544D01*
X404266Y654544D01*
Y654544D01*
X409818D01*
Y656267D01*
X414461D01*
X414705Y655461D01*
X415465Y654040D01*
X416487Y652794D01*
X417732Y651772D01*
X419154Y651012D01*
X420696Y650544D01*
X422299Y650386D01*
X423903Y650544D01*
X425445Y651012D01*
X426866Y651772D01*
X428112Y652794D01*
X429134Y654040D01*
X429893Y655461D01*
X430361Y657003D01*
X430519Y658606D01*
X430361Y660210D01*
X429893Y661752D01*
X429134Y663173D01*
X428112Y664419D01*
X426866Y665441D01*
X425445Y666200D01*
X423903Y666668D01*
X422299Y666826D01*
D02*
G37*
G36*
X307653Y687653D02*
X304500D01*
Y684500D01*
X307653D01*
Y687653D01*
D02*
G37*
G36*
X400500Y688662D02*
X400165Y688618D01*
X399386Y688295D01*
X398718Y687782D01*
X398205Y687114D01*
X397882Y686335D01*
X397838Y686000D01*
X400500D01*
Y688662D01*
D02*
G37*
G36*
X401500D02*
Y686000D01*
X404162D01*
X404118Y686335D01*
X403795Y687114D01*
X403282Y687782D01*
X402614Y688295D01*
X401835Y688618D01*
X401500Y688662D01*
D02*
G37*
G36*
X303500Y687653D02*
X300347D01*
Y684500D01*
X303500D01*
Y687653D01*
D02*
G37*
G36*
X307653Y683500D02*
X304500D01*
Y680347D01*
X307653D01*
Y683500D01*
D02*
G37*
G36*
X400500Y685000D02*
X397838D01*
X397882Y684665D01*
X398205Y683886D01*
X398718Y683218D01*
X399386Y682705D01*
X400165Y682382D01*
X400500Y682338D01*
Y685000D01*
D02*
G37*
G36*
X404162D02*
X401500D01*
Y682338D01*
X401835Y682382D01*
X402614Y682705D01*
X403282Y683218D01*
X403795Y683886D01*
X404118Y684665D01*
X404162Y685000D01*
D02*
G37*
G36*
X444896Y647437D02*
X437262D01*
X437328Y646932D01*
X437716Y645996D01*
X438333Y645191D01*
X439137Y644574D01*
X439551Y644403D01*
X439454Y643913D01*
X437229D01*
Y642781D01*
X433456D01*
Y643734D01*
X433456Y643734D01*
D01*
D01*
X433456Y643913D01*
Y643934D01*
Y644000D01*
X433456Y644087D01*
D01*
X433456Y644266D01*
X433456Y644266D01*
X433456D01*
Y646453D01*
X426544D01*
Y644266D01*
X426544Y644266D01*
X426544D01*
X426544Y644087D01*
Y643913D01*
D01*
D01*
D01*
X426544D01*
D01*
Y638182D01*
X433456D01*
Y639314D01*
X437229D01*
Y636213D01*
X444928D01*
Y643913D01*
X442704D01*
X442606Y644403D01*
X443020Y644574D01*
X443824Y645191D01*
X444441Y645996D01*
X444829Y646932D01*
X444896Y647437D01*
D02*
G37*
G36*
X389500Y649000D02*
X386838D01*
X386882Y648665D01*
X387205Y647886D01*
X387718Y647218D01*
X388386Y646705D01*
X389165Y646382D01*
X389500Y646338D01*
Y649000D01*
D02*
G37*
G36*
X393162D02*
X390500D01*
Y646338D01*
X390835Y646382D01*
X391614Y646705D01*
X392282Y647218D01*
X392795Y647886D01*
X393118Y648665D01*
X393162Y649000D01*
D02*
G37*
G36*
X303500Y654228D02*
X302665Y654118D01*
X301886Y653795D01*
X301218Y653282D01*
X300705Y652614D01*
X300382Y651835D01*
X300272Y651000D01*
X300382Y650165D01*
X300705Y649386D01*
X301218Y648718D01*
X301886Y648205D01*
X302665Y647882D01*
X302683Y647880D01*
X303153Y646743D01*
X304083Y645227D01*
X305238Y643874D01*
X305237Y643873D01*
X306380Y642935D01*
X307684Y642238D01*
X309099Y641809D01*
X310571Y641664D01*
Y641675D01*
X332085D01*
X332205Y641386D01*
X332718Y640718D01*
X333386Y640205D01*
X334165Y639882D01*
X335000Y639772D01*
X335835Y639882D01*
X336614Y640205D01*
X337282Y640718D01*
X337795Y641386D01*
X338118Y642165D01*
X338228Y643000D01*
X338118Y643835D01*
X337795Y644614D01*
X337282Y645282D01*
X336614Y645795D01*
X335835Y646118D01*
X335000Y646228D01*
X334165Y646118D01*
X333386Y645795D01*
X332718Y645282D01*
X332205Y644614D01*
X332085Y644325D01*
X310571D01*
X310519Y644315D01*
X309303Y644475D01*
X308122Y644964D01*
X307149Y645711D01*
X307119Y645755D01*
X307070Y645788D01*
X306026Y647060D01*
X305327Y648368D01*
X305782Y648718D01*
X306295Y649386D01*
X306618Y650165D01*
X306728Y651000D01*
X306618Y651835D01*
X306295Y652614D01*
X305782Y653282D01*
X305114Y653795D01*
X304335Y654118D01*
X303500Y654228D01*
D02*
G37*
G36*
X450921Y651820D02*
X449916Y651687D01*
X448980Y651300D01*
X448176Y650683D01*
X447559Y649878D01*
X447171Y648942D01*
X447038Y647937D01*
X447171Y646932D01*
X447559Y645996D01*
X448176Y645191D01*
X448980Y644574D01*
X449763Y644250D01*
Y643750D01*
X448980Y643426D01*
X448176Y642809D01*
X447559Y642004D01*
X447171Y641068D01*
X447038Y640063D01*
X447171Y639058D01*
X447559Y638122D01*
X448176Y637317D01*
X448980Y636700D01*
X449916Y636312D01*
X450921Y636180D01*
X451926Y636312D01*
X452863Y636700D01*
X453667Y637317D01*
X454284Y638122D01*
X454672Y639058D01*
X454804Y640063D01*
X454672Y641068D01*
X454284Y642004D01*
X453667Y642809D01*
X452863Y643426D01*
X452079Y643750D01*
Y644250D01*
X452863Y644574D01*
X453667Y645191D01*
X454284Y645996D01*
X454672Y646932D01*
X454804Y647937D01*
X454672Y648942D01*
X454284Y649878D01*
X453667Y650683D01*
X452863Y651300D01*
X451926Y651687D01*
X450921Y651820D01*
D02*
G37*
G36*
X270000Y642162D02*
X269665Y642118D01*
X268886Y641795D01*
X268218Y641282D01*
X267705Y640614D01*
X267382Y639835D01*
X267338Y639500D01*
X270000D01*
Y642162D01*
D02*
G37*
G36*
X271000D02*
Y639500D01*
X273662D01*
X273618Y639835D01*
X273295Y640614D01*
X272782Y641282D01*
X272114Y641795D01*
X271335Y642118D01*
X271000Y642162D01*
D02*
G37*
G36*
X389500Y652662D02*
X389165Y652618D01*
X388386Y652295D01*
X387718Y651782D01*
X387205Y651114D01*
X386882Y650335D01*
X386838Y650000D01*
X389500D01*
Y652662D01*
D02*
G37*
G36*
X390500D02*
Y650000D01*
X393162D01*
X393118Y650335D01*
X392795Y651114D01*
X392282Y651782D01*
X391614Y652295D01*
X390835Y652618D01*
X390500Y652662D01*
D02*
G37*
G36*
X469701Y666826D02*
X468097Y666668D01*
X466555Y666200D01*
X465134Y665441D01*
X463889Y664419D01*
X462866Y663173D01*
X462107Y661752D01*
X461639Y660210D01*
X461481Y658606D01*
X461639Y657003D01*
X462107Y655461D01*
X462866Y654040D01*
X463889Y652794D01*
X465134Y651772D01*
X466555Y651012D01*
X468097Y650544D01*
X469701Y650386D01*
X471304Y650544D01*
X472846Y651012D01*
X474267Y651772D01*
X475513Y652794D01*
X476535Y654040D01*
X477295Y655461D01*
X477763Y657003D01*
X477921Y658606D01*
X477763Y660210D01*
X477295Y661752D01*
X476535Y663173D01*
X475513Y664419D01*
X474267Y665441D01*
X472846Y666200D01*
X471304Y666668D01*
X469701Y666826D01*
D02*
G37*
G36*
X441579Y651754D02*
Y648437D01*
X444896D01*
X444829Y648942D01*
X444441Y649878D01*
X443824Y650683D01*
X443020Y651300D01*
X442084Y651687D01*
X441579Y651754D01*
D02*
G37*
G36*
X429500Y649818D02*
X426544D01*
Y647453D01*
X429500D01*
Y649818D01*
D02*
G37*
G36*
X433456D02*
X430500D01*
Y647453D01*
X433456D01*
Y649818D01*
D02*
G37*
G36*
X440579Y651754D02*
X440074Y651687D01*
X439137Y651300D01*
X438333Y650683D01*
X437716Y649878D01*
X437328Y648942D01*
X437262Y648437D01*
X440579D01*
Y651754D01*
D02*
G37*
G36*
X453500Y527162D02*
Y524500D01*
X456162D01*
X456118Y524835D01*
X455795Y525614D01*
X455282Y526282D01*
X454614Y526795D01*
X453835Y527118D01*
X453500Y527162D01*
D02*
G37*
G36*
X410547Y531500D02*
X408182D01*
Y528544D01*
X410547D01*
Y531500D01*
D02*
G37*
G36*
Y527456D02*
X408182D01*
Y524500D01*
X410547D01*
Y527456D01*
D02*
G37*
G36*
X452500Y527162D02*
X452165Y527118D01*
X451386Y526795D01*
X450718Y526282D01*
X450205Y525614D01*
X449882Y524835D01*
X449838Y524500D01*
X452500D01*
Y527162D01*
D02*
G37*
G36*
X644547Y531500D02*
X642182D01*
Y528544D01*
X644547D01*
Y531500D01*
D02*
G37*
G36*
X661500Y532000D02*
X658838D01*
X658882Y531665D01*
X659205Y530886D01*
X659718Y530218D01*
X660386Y529705D01*
X661165Y529382D01*
X661500Y529338D01*
Y532000D01*
D02*
G37*
G36*
X665162D02*
X662500D01*
Y529338D01*
X662835Y529382D01*
X663614Y529705D01*
X664282Y530218D01*
X664795Y530886D01*
X665118Y531665D01*
X665162Y532000D01*
D02*
G37*
G36*
X632000D02*
X629338D01*
X629382Y531665D01*
X629705Y530886D01*
X630218Y530218D01*
X630886Y529705D01*
X631665Y529382D01*
X632000Y529338D01*
Y532000D01*
D02*
G37*
G36*
X635662D02*
X633000D01*
Y529338D01*
X633335Y529382D01*
X634114Y529705D01*
X634782Y530218D01*
X635295Y530886D01*
X635618Y531665D01*
X635662Y532000D01*
D02*
G37*
G36*
X494000Y530228D02*
X493165Y530118D01*
X492386Y529795D01*
X491718Y529282D01*
X491205Y528614D01*
X490882Y527835D01*
X490772Y527000D01*
X490882Y526165D01*
X491002Y525876D01*
X485992Y520866D01*
X485959Y520817D01*
X484687Y519773D01*
X483184Y518970D01*
X481554Y518475D01*
X479916Y518314D01*
X479858Y518326D01*
X475456D01*
Y519734D01*
X475456Y519734D01*
D01*
D01*
X475456Y519913D01*
Y519934D01*
Y520000D01*
X475456Y520087D01*
D01*
X475456Y520266D01*
X475456Y520266D01*
X475456D01*
Y522453D01*
X468544D01*
Y520266D01*
X468544Y520266D01*
X468544D01*
X468544Y520087D01*
Y519913D01*
D01*
D01*
X468544D01*
Y518373D01*
X467456D01*
Y519734D01*
X467456Y519734D01*
D01*
D01*
X467456Y519913D01*
Y519934D01*
Y520000D01*
X467456Y520087D01*
D01*
X467456Y520266D01*
X467456Y520266D01*
X467456D01*
Y522453D01*
X460544D01*
Y520266D01*
X460544Y520266D01*
X460544D01*
X460544Y520087D01*
Y519913D01*
D01*
D01*
X460544D01*
Y518250D01*
X460317Y518227D01*
X459160Y517876D01*
X458614Y518295D01*
X457835Y518618D01*
X457000Y518728D01*
X456165Y518618D01*
X455386Y518295D01*
X454718Y517782D01*
X454205Y517114D01*
X453882Y516335D01*
X453772Y515500D01*
X453882Y514665D01*
X454205Y513886D01*
X454718Y513218D01*
X455386Y512705D01*
X456165Y512382D01*
X457000Y512272D01*
X457835Y512382D01*
X458614Y512705D01*
X459282Y513218D01*
X459795Y513886D01*
X460054Y514510D01*
X460544Y514413D01*
Y514182D01*
X467456D01*
Y515722D01*
X468544D01*
Y514182D01*
X475456D01*
Y515674D01*
X479858D01*
Y515665D01*
X481631Y515805D01*
X483360Y516220D01*
X485004Y516900D01*
X486520Y517830D01*
X487873Y518985D01*
X487866Y518992D01*
X492876Y524002D01*
X493165Y523882D01*
X494000Y523772D01*
X494835Y523882D01*
X495614Y524205D01*
X496282Y524718D01*
X496795Y525386D01*
X497118Y526165D01*
X497228Y527000D01*
X497118Y527835D01*
X496795Y528614D01*
X496282Y529282D01*
X495614Y529795D01*
X494835Y530118D01*
X494000Y530228D01*
D02*
G37*
G36*
X410547Y523500D02*
X408182D01*
Y520544D01*
X410547D01*
Y523500D01*
D02*
G37*
G36*
X452500Y523500D02*
X449838D01*
X449882Y523165D01*
X450205Y522386D01*
X450718Y521718D01*
X451386Y521205D01*
X452165Y520882D01*
X452500Y520838D01*
Y523500D01*
D02*
G37*
G36*
X684500Y510662D02*
X684165Y510618D01*
X683386Y510295D01*
X682718Y509782D01*
X682205Y509114D01*
X681882Y508335D01*
X681838Y508000D01*
X684500D01*
Y510662D01*
D02*
G37*
G36*
X685500D02*
Y508000D01*
X688162D01*
X688118Y508335D01*
X687795Y509114D01*
X687282Y509782D01*
X686614Y510295D01*
X685835Y510618D01*
X685500Y510662D01*
D02*
G37*
G36*
X456162Y523500D02*
X453500D01*
Y520838D01*
X453835Y520882D01*
X454614Y521205D01*
X455282Y521718D01*
X455795Y522386D01*
X456118Y523165D01*
X456162Y523500D01*
D02*
G37*
G36*
X471500Y525818D02*
X468544D01*
Y523453D01*
X471500D01*
Y525818D01*
D02*
G37*
G36*
X475456D02*
X472500D01*
Y523453D01*
X475456D01*
Y525818D01*
D02*
G37*
G36*
X463500D02*
X460544D01*
Y523453D01*
X463500D01*
Y525818D01*
D02*
G37*
G36*
X467456D02*
X464500D01*
Y523453D01*
X467456D01*
Y525818D01*
D02*
G37*
G36*
X661500Y535662D02*
X661165Y535618D01*
X660386Y535295D01*
X659718Y534782D01*
X659205Y534114D01*
X658882Y533335D01*
X658838Y533000D01*
X661500D01*
Y535662D01*
D02*
G37*
G36*
X662500D02*
Y533000D01*
X665162D01*
X665118Y533335D01*
X664795Y534114D01*
X664282Y534782D01*
X663614Y535295D01*
X662835Y535618D01*
X662500Y535662D01*
D02*
G37*
G36*
X633000D02*
Y533000D01*
X635662D01*
X635618Y533335D01*
X635295Y534114D01*
X634782Y534782D01*
X634114Y535295D01*
X633335Y535618D01*
X633000Y535662D01*
D02*
G37*
G36*
X644547Y535456D02*
X642182D01*
Y532500D01*
X644547D01*
Y535456D01*
D02*
G37*
G36*
X632000Y535662D02*
X631665Y535618D01*
X630886Y535295D01*
X630218Y534782D01*
X629705Y534114D01*
X629382Y533335D01*
X629338Y533000D01*
X632000D01*
Y535662D01*
D02*
G37*
G36*
X432500Y625228D02*
X431665Y625118D01*
X430886Y624795D01*
X430218Y624282D01*
X429705Y623614D01*
X429382Y622835D01*
X429272Y622000D01*
X429382Y621165D01*
X429705Y620386D01*
X430218Y619718D01*
X430886Y619205D01*
X431665Y618882D01*
X432500Y618772D01*
X433335Y618882D01*
X434114Y619205D01*
X434782Y619718D01*
X435204Y620267D01*
X598358D01*
X598436Y620282D01*
X599975Y620131D01*
X601530Y619659D01*
X602963Y618893D01*
X604159Y617912D01*
X604203Y617845D01*
X646798Y575251D01*
X646864Y575206D01*
X647846Y574011D01*
X648612Y572577D01*
X649083Y571022D01*
X649235Y569483D01*
X649219Y569405D01*
Y535456D01*
X648266D01*
X648266Y535456D01*
Y535456D01*
X648087Y535456D01*
X648000D01*
X647913D01*
X647734Y535456D01*
X647734Y535456D01*
Y535456D01*
X645547D01*
Y531999D01*
Y528544D01*
X647913D01*
X647913Y528544D01*
Y528544D01*
X647913D01*
X648087D01*
X648266Y528544D01*
X648266Y528544D01*
Y528544D01*
X650267D01*
Y521818D01*
X648544D01*
Y518574D01*
X648190Y518221D01*
X569500Y518262D01*
X569465Y518255D01*
X569430Y518259D01*
X568450Y518162D01*
X567470Y518066D01*
X567403Y518045D01*
X567333Y518038D01*
X567265Y518018D01*
X567265Y518018D01*
X567265D01*
X565515Y517487D01*
X565515Y517487D01*
X565448Y517466D01*
X565416Y517450D01*
X565381Y517443D01*
X565352Y517423D01*
X565318Y517413D01*
X563643Y516517D01*
X563643Y516517D01*
X563581Y516484D01*
X563527Y516440D01*
X563465Y516407D01*
X563451Y516396D01*
X563451Y516396D01*
X563451Y516396D01*
X563410Y516362D01*
X563410Y516362D01*
X562482Y515600D01*
X562482D01*
X561996Y515202D01*
X561996Y515202D01*
X561942Y515157D01*
X561897Y515103D01*
X561843Y515058D01*
X560593Y513535D01*
X560560Y513473D01*
X560516Y513419D01*
X560483Y513357D01*
X560483Y513357D01*
X560483Y513357D01*
X559587Y511682D01*
X559567Y511615D01*
X559534Y511552D01*
X558982Y509735D01*
X558982Y509735D01*
Y509735D01*
X558962Y509667D01*
X558955Y509597D01*
X558934Y509530D01*
X558752Y507674D01*
X558757Y507621D01*
X558756Y507619D01*
X558757Y507612D01*
X558754Y507602D01*
X558754Y507584D01*
X558758Y507552D01*
X558756Y507499D01*
X558761Y507463D01*
X558765Y507430D01*
X558780Y507380D01*
X558783Y507342D01*
X558786Y507333D01*
Y485009D01*
X558738Y483017D01*
X558746Y482974D01*
X558741Y482930D01*
X558838Y481950D01*
X558934Y480970D01*
X558955Y480902D01*
X558962Y480833D01*
X558982Y480765D01*
X558982Y480765D01*
Y480765D01*
X559513Y479015D01*
X559513Y479015D01*
X559534Y478948D01*
X559550Y478916D01*
X559557Y478882D01*
X559577Y478852D01*
X559587Y478818D01*
X560483Y477143D01*
X560483Y477143D01*
X560516Y477081D01*
X560560Y477027D01*
X560593Y476965D01*
X560604Y476951D01*
X560604Y476951D01*
X560604Y476951D01*
X560638Y476910D01*
X560638Y476910D01*
X561798Y475496D01*
X561843Y475442D01*
X561897Y475397D01*
X561942Y475343D01*
X563465Y474093D01*
X563527Y474060D01*
X563581Y474016D01*
X563643Y473982D01*
X563643Y473982D01*
X563643Y473982D01*
X565318Y473087D01*
X565385Y473067D01*
X565448Y473034D01*
X567265Y472482D01*
X567265Y472482D01*
X567265D01*
X567333Y472462D01*
X567403Y472455D01*
X567470Y472434D01*
X569326Y472252D01*
X569379Y472257D01*
X569381Y472256D01*
X569388Y472257D01*
X569398Y472255D01*
X569416Y472254D01*
X569448Y472259D01*
X569501Y472256D01*
X569537Y472261D01*
X569570Y472265D01*
X569620Y472280D01*
X569658Y472284D01*
X569667Y472286D01*
X633000D01*
X633004Y472287D01*
X633008Y472286D01*
X637469Y472334D01*
X639320Y472152D01*
X640082Y471921D01*
X640082D01*
X641071Y471621D01*
X641439Y471424D01*
X641439Y471424D01*
X642684Y470759D01*
X643910Y469753D01*
X643910D01*
X643910Y469753D01*
X644098Y469598D01*
X645259Y468184D01*
D01*
X646121Y466571D01*
X646330Y465883D01*
X646330Y465883D01*
X646652Y464820D01*
X646729Y464038D01*
D01*
Y464038D01*
X646816Y463151D01*
X646817Y463146D01*
X646814Y463139D01*
X646800Y463069D01*
Y462999D01*
X646786Y462930D01*
Y432295D01*
X646795Y432249D01*
X646792Y432202D01*
X646822Y432114D01*
X646841Y432022D01*
X646856Y431998D01*
X646857Y431992D01*
X646869Y431975D01*
X646881Y431939D01*
X646898Y431909D01*
X646898D01*
X646898Y431909D01*
X647058Y431614D01*
X646395Y431105D01*
X645809Y430342D01*
X645441Y429454D01*
X645316Y428500D01*
X645441Y427546D01*
X645809Y426658D01*
X646395Y425895D01*
X647057Y425387D01*
X647057Y425387D01*
X647036Y425356D01*
X647022Y425322D01*
X646898Y425091D01*
X646898Y425091D01*
X646898D01*
X646881Y425062D01*
X646869Y425025D01*
X646857Y425007D01*
X646856Y425002D01*
X646841Y424978D01*
X646822Y424887D01*
X646792Y424798D01*
X646795Y424751D01*
X646786Y424705D01*
Y412500D01*
X632250D01*
X632500Y370000D01*
X643068D01*
X646515Y369660D01*
X646478Y369664D01*
X646795Y369278D01*
X646726Y368576D01*
X646652Y367822D01*
X646421Y367060D01*
Y367060D01*
X646121Y366071D01*
X645924Y365703D01*
X645924Y365703D01*
X645259Y364458D01*
X644216Y363188D01*
X644216Y363188D01*
X644174Y363136D01*
X644174Y363136D01*
X644174Y363136D01*
X644146Y363117D01*
X644146Y363117D01*
X644091Y363080D01*
X644041Y363031D01*
X644038Y363029D01*
X644038Y363029D01*
X644038Y363029D01*
X643982Y362991D01*
X640285Y359280D01*
X629049Y348000D01*
X629049Y348000D01*
X629049Y348000D01*
X629049Y348000D01*
X627831Y347001D01*
X627831Y347001D01*
X626472Y346274D01*
X624998Y345827D01*
X624498Y345778D01*
X623592Y345688D01*
X623533Y345700D01*
X623475D01*
X623464Y345702D01*
X623453D01*
X623394Y345714D01*
X575000D01*
X494500Y345757D01*
X494454Y345748D01*
X494407Y345751D01*
X493171Y345588D01*
X493149Y345581D01*
X493149D01*
X493103Y345574D01*
X493058Y345559D01*
X493035Y345556D01*
X493013Y345549D01*
X493013Y345549D01*
X493013D01*
X492990Y345544D01*
X492969Y345535D01*
X492923Y345526D01*
X492879Y345508D01*
X492879Y345508D01*
X492857Y345504D01*
X491770Y345054D01*
X491751Y345041D01*
X491708Y345023D01*
X491668Y344997D01*
X491647Y344988D01*
X491628Y344975D01*
X491628Y344975D01*
X491607Y344965D01*
X491589Y344951D01*
X491546Y344930D01*
X491509Y344901D01*
X491488Y344891D01*
X490555Y344175D01*
X490540Y344158D01*
X490503Y344129D01*
X490472Y344093D01*
X490453Y344079D01*
X490438Y344062D01*
X490438Y344062D01*
X490421Y344047D01*
X490406Y344028D01*
X490371Y343997D01*
X490342Y343960D01*
Y343960D01*
X490325Y343945D01*
X489609Y343012D01*
X489599Y342991D01*
X489570Y342954D01*
X489549Y342911D01*
X489535Y342893D01*
X489525Y342872D01*
X489525Y342872D01*
X489512Y342853D01*
X489503Y342832D01*
X489477Y342792D01*
X489459Y342749D01*
X489459Y342749D01*
X489446Y342730D01*
X488996Y341643D01*
X488992Y341621D01*
D01*
X488974Y341577D01*
X488965Y341531D01*
X488956Y341510D01*
X488951Y341487D01*
Y341487D01*
X488951Y341487D01*
X488944Y341465D01*
X488941Y341442D01*
X488926Y341397D01*
X488919Y341351D01*
Y341351D01*
X488912Y341329D01*
X488757Y340154D01*
X488761Y340103D01*
X488756Y340085D01*
X488753Y340047D01*
X488759Y340001D01*
X488757Y339968D01*
X488760Y339945D01*
X488760Y339945D01*
X488758Y339907D01*
X488768Y339827D01*
Y339827D01*
X488886Y338932D01*
X488894Y338911D01*
X488900Y338864D01*
X488915Y338819D01*
X488918Y338796D01*
X488925Y338774D01*
X488925Y338774D01*
Y338774D01*
X488930Y338752D01*
X488939Y338730D01*
X488948Y338684D01*
X488966Y338640D01*
X488971Y338618D01*
X489320Y337775D01*
X489332Y337755D01*
X489351Y337712D01*
X489377Y337673D01*
X489386Y337651D01*
X489398Y337632D01*
X489398Y337632D01*
X489409Y337611D01*
X489423Y337593D01*
X489444Y337550D01*
X489472Y337513D01*
X489483Y337492D01*
X489589Y337354D01*
X490038Y336768D01*
X490056Y336753D01*
X490084Y336716D01*
X490120Y336685D01*
X490134Y336666D01*
X490151Y336651D01*
D01*
X490166Y336634D01*
X490185Y336620D01*
X490216Y336584D01*
X490253Y336556D01*
D01*
X490269Y336538D01*
X490992Y335982D01*
X491013Y335972D01*
X491013Y335972D01*
X491051Y335944D01*
X491093Y335923D01*
X491111Y335909D01*
X491132Y335898D01*
X491132Y335898D01*
X491132Y335898D01*
X491151Y335886D01*
X491173Y335877D01*
X491212Y335851D01*
X491255Y335833D01*
X491255D01*
X491275Y335820D01*
X491669Y335656D01*
X491669D01*
X491669Y335656D01*
X492118Y335471D01*
X492140Y335466D01*
X492184Y335448D01*
X492230Y335439D01*
X492251Y335430D01*
X492274Y335425D01*
X492274D01*
X492274Y335425D01*
X492296Y335418D01*
X492319Y335415D01*
X492364Y335400D01*
X492411Y335394D01*
X492411D01*
X492432Y335386D01*
X493320Y335269D01*
X493369Y335273D01*
X493372Y335271D01*
X493381Y335272D01*
X493395Y335268D01*
X493418Y335267D01*
X493460Y335272D01*
X493506Y335269D01*
X493534Y335273D01*
X493546Y335274D01*
X493592Y335286D01*
X493598Y335286D01*
X496830D01*
X496899Y335300D01*
X496969Y335300D01*
X497034Y335327D01*
X497103Y335341D01*
X497162Y335380D01*
X497227Y335406D01*
X497276Y335456D01*
X497335Y335495D01*
X497374Y335554D01*
X497424Y335603D01*
X497451Y335668D01*
X497490Y335727D01*
X497503Y335796D01*
X497530Y335861D01*
X497531Y335865D01*
Y335865D01*
X497531Y335865D01*
X497628Y336351D01*
X497641Y336363D01*
X498000Y336316D01*
X498359Y336363D01*
X498372Y336351D01*
X498470Y335861D01*
X498497Y335796D01*
X498510Y335727D01*
X498525Y335706D01*
X498531Y335681D01*
X498531Y335681D01*
X498559Y335645D01*
X498576Y335603D01*
X498626Y335554D01*
X498644Y335527D01*
X498665Y335495D01*
X498686Y335481D01*
X498702Y335461D01*
X498741Y335438D01*
X498773Y335407D01*
X498838Y335380D01*
X498897Y335341D01*
X498922Y335336D01*
X498944Y335323D01*
X498989Y335317D01*
X499030Y335300D01*
X499101D01*
X499170Y335286D01*
X515574D01*
X515831Y334857D01*
X515741Y334688D01*
X515329Y333332D01*
X515240Y332421D01*
X529603D01*
X529513Y333332D01*
X529102Y334688D01*
X529013Y334854D01*
X529270Y335283D01*
Y335283D01*
X529270Y335283D01*
X552026Y335273D01*
X555724Y335272D01*
X555981Y334843D01*
X555898Y334688D01*
X555487Y333332D01*
X555397Y332421D01*
X569760D01*
X569671Y333332D01*
X569259Y334688D01*
X569180Y334837D01*
X569437Y335266D01*
Y335266D01*
X569437Y335266D01*
X614857Y335246D01*
X614857Y335246D01*
X614927Y335246D01*
X614927Y335246D01*
X614927Y335246D01*
X614996Y335260D01*
X615066Y335260D01*
X615131Y335287D01*
X615200Y335300D01*
X615200Y335300D01*
X615200Y335300D01*
X615259Y335339D01*
X615324Y335366D01*
X615373Y335416D01*
X615432Y335455D01*
X615432Y335455D01*
X615432Y335455D01*
X615432Y335455D01*
X615471Y335514D01*
X615521Y335563D01*
X615521Y335563D01*
X615521D01*
X615521D01*
D01*
Y335563D01*
X615571Y335631D01*
X615628Y335582D01*
X615628Y335582D01*
X615629Y335581D01*
X615848Y335455D01*
D01*
X615848Y335455D01*
X615962Y335379D01*
X615962Y335379D01*
X615962Y335379D01*
X615962Y335379D01*
X615998Y335364D01*
X616147Y335302D01*
X616150Y335300D01*
X616154Y335299D01*
X616219Y335272D01*
X616284Y335259D01*
X616354Y335259D01*
X616423Y335245D01*
X621610Y335243D01*
X630816Y335239D01*
X630816Y334330D01*
X630741Y334188D01*
X630329Y332832D01*
X630240Y331921D01*
X644603D01*
X644513Y332832D01*
X644102Y334188D01*
X643434Y335438D01*
X642534Y336534D01*
X641438Y337434D01*
X641151Y337587D01*
X641102Y338085D01*
X641335Y338277D01*
X641369Y338318D01*
X641370Y338318D01*
X641375Y338324D01*
X641384Y338330D01*
X641397Y338342D01*
X641417Y338368D01*
X641455Y338403D01*
X641478Y338433D01*
X641478Y338433D01*
D01*
X641498Y338458D01*
X641523Y338505D01*
X641547Y338534D01*
X641551Y338542D01*
X641572Y338562D01*
X653385Y350376D01*
X653385Y350376D01*
Y350376D01*
X653847Y350185D01*
Y347847D01*
X661153D01*
Y355153D01*
X658815D01*
X658624Y355615D01*
X658624Y355615D01*
X658624Y355615D01*
X658990Y355980D01*
D01*
X659579Y356503D01*
X659613Y356548D01*
X659657Y356584D01*
X660907Y358107D01*
X660940Y358169D01*
X660984Y358223D01*
X661018Y358285D01*
X661018Y358285D01*
X661018Y358285D01*
X661913Y359960D01*
X661933Y360028D01*
X661967Y360090D01*
X662518Y361907D01*
X662518Y361907D01*
Y361907D01*
X662538Y361975D01*
X662545Y362045D01*
X662566Y362112D01*
X662748Y363968D01*
X662743Y364021D01*
X662744Y364023D01*
X662743Y364030D01*
X662746Y364040D01*
X662746Y364058D01*
X662742Y364090D01*
X662744Y364143D01*
X662739Y364180D01*
X662735Y364212D01*
X662720Y364262D01*
X662716Y364300D01*
X662714Y364309D01*
Y364338D01*
Y366702D01*
X662709Y366725D01*
Y366748D01*
X662700Y366795D01*
Y366841D01*
X662718Y366867D01*
X662835Y366882D01*
X663614Y367205D01*
X664282Y367718D01*
X664795Y368386D01*
X665118Y369165D01*
X665162Y369500D01*
X661999D01*
Y370000D01*
X688750D01*
Y412500D01*
X662714D01*
Y417000D01*
Y425562D01*
X662705Y425607D01*
Y425626D01*
X662700Y425649D01*
Y425702D01*
X662691Y425747D01*
X662676Y425782D01*
X662667Y425855D01*
X662655Y425876D01*
X662650Y425899D01*
X662591Y425987D01*
X662584Y426004D01*
X662576Y426012D01*
X662528Y426096D01*
X662509Y426111D01*
X662496Y426130D01*
X662399Y426195D01*
X662307Y426266D01*
X662279Y426279D01*
X662191Y426658D01*
X662559Y427546D01*
X662684Y428500D01*
X662559Y429454D01*
X662191Y430342D01*
X662279Y430721D01*
X662307Y430734D01*
X662399Y430805D01*
X662496Y430870D01*
X662509Y430889D01*
X662528Y430904D01*
X662576Y430988D01*
X662584Y430996D01*
X662591Y431013D01*
X662650Y431101D01*
X662655Y431124D01*
X662667Y431145D01*
X662676Y431218D01*
X662691Y431253D01*
X662700Y431298D01*
Y431351D01*
X662705Y431374D01*
Y431393D01*
X662714Y431438D01*
Y508085D01*
X662703Y508138D01*
X662705Y508148D01*
X662697Y508181D01*
X662694Y508251D01*
X662685Y508287D01*
X662664Y508333D01*
X662659Y508358D01*
X662651Y508370D01*
X662640Y508419D01*
X662598Y508476D01*
X662569Y508540D01*
X662517Y508588D01*
X662476Y508644D01*
X662416Y508681D01*
X662364Y508729D01*
X662298Y508753D01*
X662239Y508790D01*
X661769Y508963D01*
X661700Y508974D01*
X661634Y508998D01*
X661564Y508996D01*
X661494Y509007D01*
X661426Y508990D01*
X661356Y508987D01*
X661292Y508958D01*
X661224Y508942D01*
X661182Y508912D01*
X661169Y508908D01*
X661148Y508892D01*
X661103Y508871D01*
X661073Y508849D01*
X661025Y508798D01*
X660998Y508778D01*
X660993Y508769D01*
X660950Y508735D01*
X659990Y507612D01*
D01*
X659936Y507557D01*
X658647Y506456D01*
X657226Y505586D01*
X657226Y505586D01*
X657226D01*
X657226Y505586D01*
X656456Y505267D01*
X656456Y505267D01*
X655687Y504948D01*
X655055Y504796D01*
X654066Y504559D01*
X654066D01*
X654066D01*
X653464Y504511D01*
X652431Y504430D01*
X652405Y504435D01*
X639456D01*
Y504547D01*
X635999D01*
Y505547D01*
X639456D01*
Y505659D01*
X652405D01*
X652416Y505661D01*
D01*
X652429D01*
X652463Y505658D01*
X652498Y505661D01*
X652534Y505658D01*
X652569Y505661D01*
X652603Y505658D01*
X654101Y505805D01*
X654101Y505805D01*
X654101Y505805D01*
X654120Y505807D01*
X654120D01*
X654171Y505812D01*
X654238Y505832D01*
X654308Y505839D01*
X654375Y505860D01*
X654375Y505860D01*
X655871Y506314D01*
X655871Y506314D01*
X655938Y506334D01*
X655970Y506351D01*
X656004Y506358D01*
X656034Y506377D01*
X656068Y506388D01*
X657571Y507191D01*
X657625Y507235D01*
X657687Y507268D01*
X658904Y508268D01*
X658926Y508294D01*
X658926Y508295D01*
X658954Y508317D01*
X658976Y508345D01*
X659003Y508367D01*
X659025Y508393D01*
X659034Y508403D01*
X659044Y508409D01*
X659044Y508409D01*
X659138Y508504D01*
X659138Y508504D01*
X659145Y508513D01*
X659154Y508522D01*
X659180Y508544D01*
X659203Y508571D01*
X659230Y508594D01*
X659253Y508621D01*
X659253Y508621D01*
X659279Y508643D01*
X660279Y509860D01*
X660312Y509922D01*
X660357Y509977D01*
X661160Y511480D01*
X661180Y511547D01*
X661213Y511609D01*
X661687Y513172D01*
X661687Y513172D01*
X661708Y513239D01*
X661715Y513309D01*
X661735Y513377D01*
X661742Y513447D01*
X661890Y514944D01*
X661886Y514978D01*
X661890Y515014D01*
X661886Y515049D01*
X661890Y515084D01*
X661886Y515118D01*
D01*
Y515118D01*
Y515131D01*
D01*
X661888Y515142D01*
Y517430D01*
X661874Y517499D01*
X661874Y517569D01*
X661863Y517628D01*
X661836Y517693D01*
X661834Y517703D01*
X661828Y517712D01*
X661808Y517760D01*
X661757Y517885D01*
X661756Y517885D01*
X661756Y517885D01*
X661658Y517983D01*
X661560Y518082D01*
X661560Y518082D01*
X661559Y518082D01*
X661435Y518134D01*
X661386Y518154D01*
X661378Y518160D01*
X661367Y518162D01*
X661303Y518189D01*
X661244Y518200D01*
X661173Y518200D01*
X661105Y518214D01*
X658275Y518216D01*
X655810Y518217D01*
X655782Y518358D01*
X655456Y519998D01*
Y521818D01*
X653733D01*
Y528544D01*
X653818D01*
Y535456D01*
X652686D01*
Y569405D01*
X652689D01*
X652544Y571241D01*
X652114Y573032D01*
X651410Y574733D01*
X650448Y576303D01*
X649252Y577704D01*
X649249Y577702D01*
X606655Y620297D01*
X606657Y620299D01*
X606652Y620303D01*
X606652Y620303D01*
Y620303D01*
X605256Y621495D01*
X603686Y622457D01*
X601985Y623162D01*
X600194Y623592D01*
X598358Y623736D01*
Y623733D01*
X435204D01*
X434782Y624282D01*
X434114Y624795D01*
X433335Y625118D01*
X432500Y625228D01*
D02*
G37*
G36*
X233456Y542865D02*
X230500D01*
Y540500D01*
X233456D01*
Y542865D01*
D02*
G37*
G36*
X445500Y547818D02*
X442544D01*
Y545453D01*
X445500D01*
Y547818D01*
D02*
G37*
G36*
X229500Y542865D02*
X226544D01*
Y540500D01*
X229500D01*
Y542865D01*
D02*
G37*
G36*
Y539500D02*
X226544D01*
Y537135D01*
X229500D01*
Y539500D01*
D02*
G37*
G36*
X233456D02*
X230500D01*
Y537135D01*
X233456D01*
Y539500D01*
D02*
G37*
G36*
X449456Y547818D02*
X446500D01*
Y545453D01*
X449456D01*
Y547818D01*
D02*
G37*
G36*
X453500D02*
X450544D01*
Y545453D01*
X453500D01*
Y547818D01*
D02*
G37*
G36*
X410547Y535456D02*
X408182D01*
Y532500D01*
X410547D01*
Y535456D01*
D02*
G37*
G36*
X375000Y567728D02*
X374165Y567618D01*
X373386Y567295D01*
X372718Y566782D01*
X372205Y566114D01*
X371882Y565335D01*
X371772Y564500D01*
X371882Y563665D01*
X372205Y562886D01*
X372718Y562218D01*
X373386Y561705D01*
X374165Y561382D01*
X375000Y561272D01*
X375835Y561382D01*
X376614Y561705D01*
X377282Y562218D01*
X377703Y562767D01*
X407500D01*
X407578Y562782D01*
X409117Y562631D01*
X410672Y562159D01*
X412106Y561393D01*
X413362Y560362D01*
X414393Y559106D01*
X415159Y557672D01*
X415631Y556117D01*
X415782Y554578D01*
X415767Y554500D01*
Y538500D01*
Y535456D01*
X414266D01*
X414266Y535456D01*
Y535456D01*
X414087Y535456D01*
X414000D01*
X413913D01*
X413734Y535456D01*
X413734Y535456D01*
Y535456D01*
X411547D01*
Y531999D01*
Y528544D01*
X413913D01*
Y528544D01*
X414087D01*
X414266Y528544D01*
X414266Y528544D01*
Y528544D01*
X415767D01*
Y527456D01*
X414266D01*
X414266Y527456D01*
Y527456D01*
X414087Y527456D01*
X414000D01*
X413913D01*
X413734Y527456D01*
X413734Y527456D01*
Y527456D01*
X411547D01*
Y523999D01*
Y520544D01*
X413913D01*
Y520544D01*
X414087D01*
X414266Y520544D01*
X414266Y520544D01*
Y520544D01*
X415767D01*
Y519703D01*
X415218Y519282D01*
X414705Y518614D01*
X414382Y517835D01*
X414272Y517000D01*
X414382Y516165D01*
X414705Y515386D01*
X415218Y514718D01*
X415886Y514205D01*
X416665Y513882D01*
X417500Y513772D01*
X418335Y513882D01*
X419114Y514205D01*
X419782Y514718D01*
X420295Y515386D01*
X420618Y516165D01*
X420728Y517000D01*
X420618Y517835D01*
X420295Y518614D01*
X419782Y519282D01*
X419233Y519703D01*
Y520544D01*
X419818D01*
Y527456D01*
X419233D01*
Y528544D01*
X419818D01*
Y535456D01*
X419233D01*
Y536767D01*
X442544D01*
Y536182D01*
X449456D01*
Y536767D01*
X450544D01*
Y536182D01*
X457456D01*
Y536767D01*
X457858D01*
X457936Y536782D01*
X459475Y536631D01*
X461030Y536159D01*
X462464Y535393D01*
X462848Y535077D01*
X462772Y534500D01*
X462882Y533665D01*
X463205Y532886D01*
X463718Y532218D01*
X464386Y531705D01*
X465165Y531382D01*
X466000Y531272D01*
X466835Y531382D01*
X467614Y531705D01*
X468282Y532218D01*
X468795Y532886D01*
X469118Y533665D01*
X469228Y534500D01*
X469118Y535335D01*
X468795Y536114D01*
X468282Y536782D01*
X467614Y537295D01*
X466835Y537618D01*
X466000Y537728D01*
X465193Y537621D01*
X464756Y537995D01*
X463186Y538957D01*
X461484Y539662D01*
X459694Y540092D01*
X457858Y540236D01*
Y540236D01*
X457809D01*
X457456Y540590D01*
Y541734D01*
X457456Y541734D01*
D01*
D01*
X457456Y541913D01*
Y541934D01*
Y542000D01*
X457456Y542087D01*
D01*
X457456Y542266D01*
X457456Y542266D01*
X457456D01*
Y544453D01*
X450544D01*
Y542266D01*
X450544Y542266D01*
X450544D01*
X450544Y542087D01*
Y541913D01*
D01*
D01*
D01*
X450544D01*
D01*
Y540233D01*
X449456D01*
Y541734D01*
X449456Y541734D01*
D01*
D01*
X449456Y541913D01*
Y541934D01*
Y542000D01*
X449456Y542087D01*
D01*
X449456Y542266D01*
X449456Y542266D01*
X449456D01*
Y544453D01*
X442544D01*
Y542266D01*
X442544Y542266D01*
X442544D01*
X442544Y542087D01*
Y541913D01*
D01*
D01*
D01*
X442544D01*
D01*
Y540233D01*
X419233D01*
Y554500D01*
X419236D01*
X419092Y556336D01*
X418662Y558127D01*
X417957Y559828D01*
X416995Y561398D01*
X415799Y562799D01*
X414398Y563995D01*
X412828Y564957D01*
X411127Y565662D01*
X409336Y566092D01*
X407500Y566236D01*
Y566233D01*
X377703D01*
X377282Y566782D01*
X376614Y567295D01*
X375835Y567618D01*
X375000Y567728D01*
D02*
G37*
%LPD*%
G36*
X632191Y504693D02*
X632544Y504032D01*
Y502687D01*
X632308Y502561D01*
X632308Y502561D01*
X632308D01*
X631626Y502196D01*
X630728Y501924D01*
X629831Y501651D01*
X628939Y501564D01*
X628007Y501472D01*
X627964Y501480D01*
X617973D01*
X617643Y501856D01*
X617662Y502000D01*
X614499D01*
Y503000D01*
X617662D01*
X617618Y503335D01*
X617741Y503520D01*
X627964D01*
X627979Y503522D01*
D01*
X627984D01*
D01*
X628019Y503519D01*
X628053Y503523D01*
X628089Y503519D01*
X628124Y503522D01*
X628124D01*
X628159Y503519D01*
X629365Y503638D01*
X629432Y503658D01*
X629502Y503665D01*
X629569Y503686D01*
D01*
X629569Y503686D01*
X630781Y504053D01*
X630812Y504070D01*
X630847Y504077D01*
X630876Y504097D01*
X630910Y504107D01*
X632089Y504737D01*
X632092Y504739D01*
X632191Y504693D01*
D02*
G37*
G36*
X608270Y506449D02*
X608270D01*
D01*
X609082Y506385D01*
X609082D01*
X609082D01*
X609923Y506183D01*
X609923D01*
X610763Y505981D01*
X612260Y505361D01*
X612326Y504865D01*
X612218Y504782D01*
X611705Y504114D01*
X611585Y503825D01*
X611114Y503656D01*
X610867Y503788D01*
X610799Y503809D01*
X610737Y503842D01*
X610670Y503862D01*
X610670Y503862D01*
X609250Y504293D01*
X609249Y504293D01*
X609249D01*
X609182Y504314D01*
X609112Y504320D01*
X609045Y504341D01*
X607576Y504486D01*
X607542Y504482D01*
X607506Y504486D01*
X607471Y504482D01*
X607436Y504486D01*
X607402Y504482D01*
X607402D01*
X607367D01*
X607358Y504480D01*
D01*
X590456D01*
Y505047D01*
X586999D01*
Y506047D01*
X590456D01*
Y506520D01*
X607358D01*
X607360Y506520D01*
X608270Y506449D01*
D02*
G37*
G36*
X648544Y517507D02*
Y516266D01*
X648544Y516266D01*
X648544D01*
X648544Y516087D01*
Y515913D01*
D01*
D01*
D01*
X648544D01*
D01*
Y513547D01*
X655456D01*
Y515734D01*
X655456Y515734D01*
D01*
D01*
X655456Y515913D01*
Y515934D01*
Y516000D01*
X655456Y516087D01*
D01*
X655456Y516266D01*
X655456Y516266D01*
X655456D01*
Y517150D01*
X655809Y517503D01*
X658275Y517502D01*
X661104Y517500D01*
X661163Y517489D01*
X661174Y517430D01*
Y515142D01*
D01*
X661172Y515131D01*
Y515118D01*
X661179Y515084D01*
X661176Y515048D01*
X661179Y515014D01*
X661032Y513516D01*
Y513516D01*
X661025Y513447D01*
X661004Y513379D01*
Y513379D01*
X660530Y511816D01*
X659727Y510313D01*
X658728Y509096D01*
X658701Y509074D01*
X658679Y509046D01*
X658649Y509027D01*
X658640Y509017D01*
X658634Y509008D01*
X658634D01*
X658539Y508913D01*
Y508913D01*
X658530Y508907D01*
X658521Y508898D01*
X658501Y508869D01*
X658474Y508846D01*
X658452Y508819D01*
X657234Y507820D01*
X655731Y507017D01*
X655731Y507017D01*
X655664Y506997D01*
X655664Y506997D01*
X654168Y506543D01*
X654168D01*
X654101Y506522D01*
X654050Y506517D01*
X654031Y506516D01*
D01*
X652533Y506368D01*
X652499Y506371D01*
X652464Y506368D01*
X652429Y506375D01*
X652416D01*
X652405Y506373D01*
D01*
X639456D01*
Y507734D01*
X639456Y507734D01*
D01*
D01*
X639456Y507913D01*
Y507934D01*
Y508000D01*
X639456Y508087D01*
D01*
X639456Y508266D01*
X639456Y508266D01*
X639456D01*
Y510453D01*
X632544D01*
Y508266D01*
X632544Y508266D01*
X632544D01*
X632544Y508087D01*
Y507913D01*
D01*
D01*
X632544D01*
Y506016D01*
X631752Y505366D01*
X630574Y504736D01*
X630574D01*
X629362Y504369D01*
X629362D01*
X629295Y504348D01*
X628089Y504229D01*
X628054Y504233D01*
X628019Y504229D01*
X627984Y504236D01*
X627979D01*
X627964Y504233D01*
X617204D01*
X616782Y504782D01*
X616114Y505295D01*
X615335Y505618D01*
X614500Y505728D01*
X613665Y505618D01*
X613411Y505513D01*
X612686Y505957D01*
X610985Y506662D01*
X610089Y506877D01*
X609248Y507079D01*
X609248D01*
X609194Y507092D01*
X609138Y507096D01*
X609138D01*
X608326Y507160D01*
X607358Y507236D01*
Y507233D01*
X590456D01*
Y508234D01*
X590456Y508234D01*
D01*
D01*
X590456Y508413D01*
Y508434D01*
Y508500D01*
X590456Y508587D01*
D01*
X590456Y508766D01*
X590456Y508766D01*
X590456D01*
Y510953D01*
X583544D01*
Y508766D01*
X583544Y508766D01*
X583544D01*
X583544Y508587D01*
Y508413D01*
D01*
D01*
X583544D01*
Y507281D01*
X580456D01*
Y508234D01*
X580456Y508234D01*
D01*
D01*
X580456Y508413D01*
Y508434D01*
Y508500D01*
X580456Y508587D01*
D01*
X580456Y508766D01*
X580456Y508766D01*
X580456D01*
Y510953D01*
X573544D01*
Y508766D01*
X573544Y508766D01*
X573544D01*
X573544Y508587D01*
Y508413D01*
D01*
D01*
X573544D01*
Y502682D01*
X580456D01*
Y503814D01*
X583544D01*
Y502682D01*
X590456D01*
Y503767D01*
X607358D01*
X607367Y503768D01*
X607402D01*
X607436Y503775D01*
X607472Y503772D01*
X607506Y503775D01*
X608975Y503631D01*
X609042Y503610D01*
X609042D01*
X610463Y503179D01*
X610463Y503179D01*
X610530Y503159D01*
X610778Y503027D01*
X610778Y503027D01*
X611305Y502745D01*
X611272Y502500D01*
X611382Y501665D01*
X611705Y500886D01*
X612218Y500218D01*
X612886Y499705D01*
X613665Y499382D01*
X614500Y499272D01*
X615335Y499382D01*
X616114Y499705D01*
X616782Y500218D01*
X617204Y500767D01*
X627964D01*
Y500750D01*
X628077Y500762D01*
X628077D01*
X629009Y500853D01*
X629971Y500948D01*
X630936Y501241D01*
X631833Y501513D01*
X631833Y501513D01*
X631900Y501533D01*
X631962Y501567D01*
X631962Y501567D01*
X632645Y501931D01*
X633114Y502182D01*
X639456D01*
Y503722D01*
X652405D01*
Y503712D01*
X653520Y503800D01*
X654122Y503847D01*
X654122D01*
X654178Y503852D01*
X654233Y503865D01*
X654233D01*
X655222Y504102D01*
X655908Y504267D01*
X656729Y504607D01*
X657499Y504926D01*
X657499Y504926D01*
X657551Y504948D01*
X657599Y504977D01*
D01*
X659020Y505848D01*
X659020Y505848D01*
X659068Y505877D01*
X660420Y507032D01*
X660420Y507032D01*
X660420D01*
X660420D01*
X660495Y507107D01*
X660495Y507107D01*
Y507107D01*
X660497Y507109D01*
X660515Y507127D01*
X660515Y507127D01*
X661493Y508272D01*
X661522Y508293D01*
X661991Y508120D01*
X662000Y508085D01*
Y431438D01*
X661991Y431393D01*
Y431374D01*
X661543Y431153D01*
X660842Y431691D01*
X659954Y432059D01*
X659000Y432184D01*
X658046Y432059D01*
X657158Y431691D01*
X656395Y431105D01*
X655809Y430342D01*
X655441Y429454D01*
X655316Y428500D01*
X655441Y427546D01*
X655809Y426658D01*
X656395Y425895D01*
X657158Y425309D01*
X658046Y424941D01*
X659000Y424816D01*
X659954Y424941D01*
X660842Y425309D01*
X661543Y425847D01*
X661991Y425626D01*
Y425607D01*
X662000Y425562D01*
Y417000D01*
Y412500D01*
X647500D01*
Y424705D01*
X647517Y424734D01*
X647550Y424767D01*
X647589Y424826D01*
X647656Y424987D01*
X647695Y425083D01*
X647704Y425083D01*
X648046Y424941D01*
X649000Y424816D01*
X649954Y424941D01*
X650842Y425309D01*
X651605Y425895D01*
X652191Y426658D01*
X652559Y427546D01*
X652684Y428500D01*
X652559Y429454D01*
X652191Y430342D01*
X651605Y431105D01*
X650842Y431691D01*
X649954Y432059D01*
X649000Y432184D01*
X648046Y432059D01*
X647704Y431917D01*
X647636Y432060D01*
Y432060D01*
X647589Y432174D01*
D01*
D01*
D01*
X647589Y432174D01*
X647589Y432174D01*
X647589D01*
X647550Y432233D01*
X647517Y432266D01*
X647500Y432295D01*
Y462930D01*
X647514Y463000D01*
X647548D01*
X647527Y463221D01*
Y463221D01*
X647439Y464108D01*
X647355Y464960D01*
X647013Y466090D01*
X646804Y466778D01*
X646804Y466778D01*
X646783Y466845D01*
X646750Y466907D01*
X646750Y466907D01*
X645888Y468521D01*
X645888Y468521D01*
X645855Y468583D01*
X644605Y470105D01*
X644551Y470150D01*
X644551Y470150D01*
X644362Y470304D01*
X643083Y471355D01*
X641776Y472054D01*
X641407Y472250D01*
X641407Y472250D01*
X641345Y472284D01*
X641278Y472304D01*
X641278Y472304D01*
X640289Y472604D01*
X639460Y472855D01*
X637500Y473048D01*
X633000Y473000D01*
X569500D01*
Y472975D01*
X569467Y472972D01*
X569451Y472966D01*
X569433Y472967D01*
X569396Y472962D01*
X567540Y473145D01*
X567472Y473165D01*
X567472D01*
X565655Y473716D01*
X563979Y474612D01*
X563979Y474612D01*
X563917Y474645D01*
X562395Y475895D01*
X562350Y475949D01*
D01*
X561190Y477363D01*
X561190Y477363D01*
X561156Y477404D01*
X561145Y477417D01*
X561112Y477479D01*
X561112Y477479D01*
X560217Y479155D01*
X560217Y479155D01*
X560196Y479222D01*
X560196Y479222D01*
X559665Y480972D01*
Y480972D01*
X559645Y481040D01*
X559548Y482020D01*
X559452Y483000D01*
X559500Y485000D01*
Y507500D01*
X559475D01*
X559472Y507533D01*
X559467Y507549D01*
X559467Y507567D01*
X559462Y507604D01*
X559645Y509460D01*
X559665Y509528D01*
Y509528D01*
X560217Y511345D01*
X561112Y513021D01*
X561112Y513021D01*
X561145Y513083D01*
X562395Y514605D01*
X562449Y514650D01*
D01*
X562934Y515048D01*
X563863Y515810D01*
X563863Y515810D01*
X563904Y515844D01*
X563917Y515855D01*
X563979Y515888D01*
X563979Y515888D01*
X565655Y516784D01*
X565655Y516784D01*
X565722Y516804D01*
X565722Y516804D01*
X567472Y517335D01*
X567472D01*
X567540Y517355D01*
X568520Y517452D01*
X569500Y517548D01*
X648544Y517507D01*
D02*
G37*
G36*
X658882Y369165D02*
X659205Y368386D01*
X659718Y367718D01*
X660386Y367205D01*
X661165Y366882D01*
X661988Y366774D01*
X661988Y366771D01*
X661996Y366748D01*
Y366725D01*
X662000Y366702D01*
Y364338D01*
Y364142D01*
X662025D01*
X662028Y364110D01*
X662034Y364093D01*
X662033Y364075D01*
X662038Y364038D01*
X661855Y362182D01*
X661835Y362115D01*
Y362115D01*
X661283Y360297D01*
X660388Y358622D01*
X660388Y358622D01*
X660355Y358559D01*
X659105Y357037D01*
X658500Y356500D01*
X658485Y356485D01*
X658119Y356119D01*
X657153Y355153D01*
X653847D01*
Y351847D01*
X652881Y350881D01*
X641067Y339067D01*
X640929Y338929D01*
X640947Y338911D01*
X640926Y338886D01*
X640918Y338870D01*
X640904Y338858D01*
X640882Y338828D01*
X640049Y338144D01*
X638832Y338513D01*
X637421Y338652D01*
X636011Y338513D01*
X634654Y338102D01*
X633404Y337434D01*
X632308Y336534D01*
X631831Y335952D01*
X630817Y335953D01*
X630817D01*
X621611Y335957D01*
X616424Y335959D01*
X616359Y335972D01*
X616245Y336048D01*
X616223Y336057D01*
X616205Y336073D01*
X615985Y336200D01*
X616000Y336315D01*
X615500Y336381D01*
Y339500D01*
X612382D01*
X612441Y339046D01*
X612809Y338158D01*
X613395Y337395D01*
X614158Y336809D01*
X615025Y336450D01*
X614927Y335960D01*
D01*
X614927Y335960D01*
X614857Y335960D01*
X614857Y335960D01*
X569437Y335980D01*
X569437D01*
X568557Y335980D01*
X567692Y337034D01*
X566596Y337933D01*
X565346Y338602D01*
X563989Y339013D01*
X562579Y339152D01*
X561168Y339013D01*
X559812Y338602D01*
X558562Y337933D01*
X557466Y337034D01*
X556605Y335985D01*
X552026Y335987D01*
X529271Y335997D01*
X529270Y335997D01*
X528385Y335997D01*
X527534Y337034D01*
X526439Y337933D01*
X525188Y338602D01*
X523832Y339013D01*
X522421Y339152D01*
X521011Y339013D01*
X519654Y338602D01*
X518404Y337933D01*
X517308Y337034D01*
X516460Y336000D01*
X499240D01*
X499170D01*
D01*
X499170Y336000D01*
X499072Y336490D01*
X499072Y336490D01*
X499072Y336490D01*
X499072Y336490D01*
X499842Y336809D01*
X500605Y337395D01*
X501191Y338158D01*
X501559Y339046D01*
X501618Y339500D01*
X494382D01*
X494441Y339046D01*
X494809Y338158D01*
X495395Y337395D01*
X496158Y336809D01*
X496928Y336490D01*
X496831Y336005D01*
X496830Y336000D01*
Y336000D01*
D01*
X496830D01*
X493500D01*
Y335986D01*
X493488Y335985D01*
X493465Y335979D01*
X493441Y335981D01*
X493413Y335977D01*
X492525Y336094D01*
X492504Y336101D01*
X492457Y336107D01*
X492414Y336125D01*
X492391Y336130D01*
X491942Y336316D01*
X491548Y336479D01*
X491529Y336492D01*
X491485Y336510D01*
X491448Y336539D01*
X491427Y336549D01*
X490703Y337104D01*
X490688Y337122D01*
X490650Y337150D01*
X490622Y337188D01*
X490604Y337203D01*
X490155Y337788D01*
X490049Y337927D01*
X490039Y337948D01*
X490010Y337985D01*
X489992Y338029D01*
X489979Y338048D01*
X489630Y338891D01*
X489625Y338913D01*
X489607Y338957D01*
X489601Y339004D01*
X489594Y339025D01*
X489476Y339920D01*
Y339920D01*
X489466Y340000D01*
X489468Y340038D01*
X489465Y340061D01*
X489619Y341235D01*
X489627Y341257D01*
X489633Y341304D01*
X489651Y341348D01*
X489656Y341370D01*
X490106Y342457D01*
X490118Y342476D01*
X490136Y342519D01*
X490165Y342557D01*
X490175Y342577D01*
X490891Y343510D01*
X490908Y343525D01*
X490937Y343563D01*
X490975Y343591D01*
X490990Y343609D01*
X491923Y344325D01*
X491943Y344335D01*
X491981Y344364D01*
X492024Y344382D01*
X492043Y344394D01*
X493130Y344844D01*
X493152Y344849D01*
X493196Y344867D01*
X493243Y344873D01*
X493264Y344881D01*
X494500Y345043D01*
X575000Y345000D01*
X623394D01*
X623453Y344988D01*
X623464D01*
Y344959D01*
X623662Y344978D01*
X623662D01*
X624568Y345067D01*
X625138Y345124D01*
X626747Y345612D01*
X628230Y346404D01*
X628284Y346449D01*
X628284D01*
X629501Y347448D01*
X629501Y347448D01*
X629529Y347471D01*
X629554Y347496D01*
X629554Y347496D01*
X640791Y358776D01*
X644487Y362487D01*
X644543Y362524D01*
X644543Y362524D01*
X644543Y362525D01*
X644571Y362543D01*
X644599Y362543D01*
X644605Y362537D01*
X644726Y362683D01*
D01*
X644768Y362735D01*
X645855Y364059D01*
X646554Y365367D01*
X646750Y365735D01*
X646750Y365735D01*
X646783Y365797D01*
X646804Y365864D01*
X646804Y365864D01*
X647104Y366853D01*
X647355Y367682D01*
X647437Y368506D01*
X647540Y369560D01*
Y369560D01*
X647548Y369642D01*
X647887Y370000D01*
X658772D01*
X658882Y369165D01*
D02*
G37*
%LPC*%
G36*
X586500Y514318D02*
X583544D01*
Y511953D01*
X586500D01*
Y514318D01*
D02*
G37*
G36*
X590456D02*
X587500D01*
Y511953D01*
X590456D01*
Y514318D01*
D02*
G37*
G36*
X580456D02*
X577500D01*
Y511953D01*
X580456D01*
Y514318D01*
D02*
G37*
G36*
X651500Y512547D02*
X648544D01*
Y510182D01*
X651500D01*
Y512547D01*
D02*
G37*
G36*
X655456D02*
X652500D01*
Y510182D01*
X655456D01*
Y512547D01*
D02*
G37*
G36*
X635500Y513818D02*
X632544D01*
Y511453D01*
X635500D01*
Y513818D01*
D02*
G37*
G36*
X571162Y511000D02*
X568500D01*
Y508338D01*
X568835Y508382D01*
X569614Y508705D01*
X570282Y509218D01*
X570795Y509886D01*
X571118Y510665D01*
X571162Y511000D01*
D02*
G37*
G36*
X576500Y514318D02*
X573544D01*
Y511953D01*
X576500D01*
Y514318D01*
D02*
G37*
G36*
X639456Y513818D02*
X636500D01*
Y511453D01*
X639456D01*
Y513818D01*
D02*
G37*
G36*
X567500Y511000D02*
X564838D01*
X564882Y510665D01*
X565205Y509886D01*
X565718Y509218D01*
X566386Y508705D01*
X567165Y508382D01*
X567500Y508338D01*
Y511000D01*
D02*
G37*
G36*
X629500Y484865D02*
X626544D01*
Y482500D01*
X629500D01*
Y484865D01*
D02*
G37*
G36*
X633456D02*
X630500D01*
Y482500D01*
X633456D01*
Y484865D01*
D02*
G37*
G36*
X590500Y486162D02*
X590165Y486118D01*
X589386Y485795D01*
X588718Y485282D01*
X588205Y484614D01*
X587882Y483835D01*
X587838Y483500D01*
X590500D01*
Y486162D01*
D02*
G37*
G36*
X629500Y481500D02*
X626544D01*
Y479135D01*
X629500D01*
Y481500D01*
D02*
G37*
G36*
X594162Y482500D02*
X591500D01*
Y479838D01*
X591835Y479882D01*
X592614Y480205D01*
X593282Y480718D01*
X593795Y481386D01*
X594118Y482165D01*
X594162Y482500D01*
D02*
G37*
G36*
X590500D02*
X587838D01*
X587882Y482165D01*
X588205Y481386D01*
X588718Y480718D01*
X589386Y480205D01*
X590165Y479882D01*
X590500Y479838D01*
Y482500D01*
D02*
G37*
G36*
X633456Y481500D02*
X630500D01*
Y479135D01*
X633456D01*
Y481500D01*
D02*
G37*
G36*
X591500Y486162D02*
Y483500D01*
X594162D01*
X594118Y483835D01*
X593795Y484614D01*
X593282Y485282D01*
X592614Y485795D01*
X591835Y486118D01*
X591500Y486162D01*
D02*
G37*
G36*
X619618Y339500D02*
X616500D01*
Y336382D01*
X616954Y336441D01*
X617842Y336809D01*
X618605Y337395D01*
X619191Y338158D01*
X619559Y339046D01*
X619618Y339500D01*
D02*
G37*
G36*
X568500Y514662D02*
Y512000D01*
X571162D01*
X571118Y512335D01*
X570795Y513114D01*
X570282Y513782D01*
X569614Y514295D01*
X568835Y514618D01*
X568500Y514662D01*
D02*
G37*
G36*
X567500D02*
X567165Y514618D01*
X566386Y514295D01*
X565718Y513782D01*
X565205Y513114D01*
X564882Y512335D01*
X564838Y512000D01*
X567500D01*
Y514662D01*
D02*
G37*
G36*
X497500Y343618D02*
X497046Y343559D01*
X496158Y343191D01*
X495395Y342605D01*
X494809Y341842D01*
X494441Y340954D01*
X494382Y340500D01*
X497500D01*
Y343618D01*
D02*
G37*
G36*
X616500D02*
Y340500D01*
X619618D01*
X619559Y340954D01*
X619191Y341842D01*
X618605Y342605D01*
X617842Y343191D01*
X616954Y343559D01*
X616500Y343618D01*
D02*
G37*
G36*
X615500D02*
X615046Y343559D01*
X614158Y343191D01*
X613395Y342605D01*
X612809Y341842D01*
X612441Y340954D01*
X612382Y340500D01*
X615500D01*
Y343618D01*
D02*
G37*
G36*
X498500D02*
Y340500D01*
X501618D01*
X501559Y340954D01*
X501191Y341842D01*
X500605Y342605D01*
X499842Y343191D01*
X498954Y343559D01*
X498500Y343618D01*
D02*
G37*
%LPD*%
D10*
X400000Y412500D02*
X440000D01*
X432000Y466536D02*
G03*
X434500Y460500I8535J0D01*
G01*
X451886Y469000D02*
G03*
X452000Y469047I0J161D01*
G01*
X451886Y469000D02*
G03*
X452000Y469047I0J161D01*
G01*
Y474953D02*
X422000D01*
X421689D01*
X414618Y477882D02*
G03*
X421689Y474953I7071J7071D01*
G01*
X422114Y469047D02*
G03*
X422000Y469000I0J-161D01*
G01*
X414618Y477882D02*
X413000Y479500D01*
X430776Y475500D02*
X432500D01*
Y484000D01*
X454071Y476571D02*
G03*
X457000Y483642I-7071J7071D01*
G01*
Y485000D01*
Y497500D01*
X498000D01*
Y496953D01*
X498000Y491047D02*
Y491000D01*
X493500D01*
X486929Y519929D02*
X494000Y527000D01*
X479858Y517000D02*
G03*
X486929Y519929I0J10000D01*
G01*
X474500Y534642D02*
Y537000D01*
Y545000D01*
Y564358D01*
D02*
G03*
X471571Y571429I-10000J0D01*
G01*
X461000Y582000D01*
X460750Y581750D02*
X457429Y585071D01*
D02*
G03*
X450358Y588000I-7071J-7071D01*
G01*
X435000D01*
X434839D02*
X428500D01*
X460500Y589500D02*
G03*
X455672Y591500I-4828J-4828D01*
G01*
X427642D01*
D02*
G03*
X420571Y588571I0J-10000D01*
G01*
X420429Y588429D01*
D02*
G03*
X417500Y581358I7071J-7071D01*
G01*
Y575000D01*
X412929Y587929D02*
G03*
X410000Y580858I7071J-7071D01*
G01*
Y570000D01*
X412929Y587929D02*
X436571Y611571D01*
X443642Y614500D02*
G03*
X436571Y611571I0J-10000D01*
G01*
X443642Y614500D02*
X447500D01*
X425000Y637500D02*
G03*
X432500Y630000I7500J0D01*
G01*
X425000Y637500D02*
G03*
X432500Y630000I7500J0D01*
G01*
X425000Y637500D02*
G03*
X432500Y630000I7500J0D01*
G01*
X440500Y640000D02*
G03*
X439453Y641047I-1047J0D01*
G01*
X440453Y646953D02*
X430000D01*
X430547Y647500D02*
G03*
X430000Y646953I0J-547D01*
G01*
X430547Y647500D02*
G03*
X430000Y646953I0J-547D01*
G01*
X430000Y646500D02*
X425000D01*
Y637500D01*
Y646500D02*
X411047D01*
X401047Y656500D02*
G03*
X411047Y646500I10000J0D01*
G01*
X421500Y658000D02*
G03*
X422000Y658500I0J500D01*
G01*
X401000Y684000D02*
Y685500D01*
Y684000D02*
X304000D01*
X270500Y639000D02*
G03*
X270000Y639500I-500J0D01*
G01*
X270500Y639000D02*
G03*
X270000Y638500I0J-500D01*
G01*
X303253Y651889D02*
G03*
X306182Y644818I10000J0D01*
G01*
D02*
G03*
X310571Y643000I4389J4389D01*
G01*
X335000D01*
X377500Y613500D02*
Y639500D01*
X387500Y649500D02*
G03*
X377500Y639500I0J-10000D01*
G01*
X390000Y649500D02*
Y652500D01*
X395500Y658000D02*
G03*
X390000Y652500I0J-5500D01*
G01*
X395500Y658000D02*
X401000D01*
X401047D01*
Y658000D02*
Y656500D01*
X401000Y658000D02*
Y684000D01*
X407453Y658500D02*
G03*
X406953Y658000I0J-500D01*
G01*
X407453Y658500D02*
G03*
X406953Y658000I0J-500D01*
G01*
X342429Y556571D02*
G03*
X335358Y559500I-7071J-7071D01*
G01*
X299642D01*
X292571Y562429D02*
G03*
X299642Y559500I7071J7071D01*
G01*
X292571Y562429D02*
X287429Y567571D01*
D02*
G03*
X280358Y570500I-7071J-7071D01*
G01*
X277000D01*
X276500D02*
X264642D01*
D02*
G03*
X257571Y567571I0J-10000D01*
G01*
X230000Y540000D01*
X284000Y462500D02*
X328358D01*
D02*
G03*
X335429Y465429I0J10000D01*
G01*
X346071Y476071D01*
X353142Y479000D02*
G03*
X346071Y476071I0J-10000D01*
G01*
X353142Y479000D02*
X390000D01*
X408858D01*
D02*
G03*
X415929Y481929I0J10000D01*
G01*
X426000Y484500D02*
G03*
X425646Y485354I-1207J0D01*
G01*
X426000Y484500D02*
X368929Y541571D01*
X366000Y548642D02*
G03*
X368929Y541571I10000J0D01*
G01*
X366000Y548642D02*
Y553000D01*
X346000D02*
X387071Y511929D01*
X390000Y504858D02*
G03*
X387071Y511929I-10000J0D01*
G01*
X390000Y504858D02*
Y479000D01*
Y422500D01*
D02*
G03*
X400000Y412500I10000J0D01*
G01*
X452500Y475000D02*
X454071Y476571D01*
X451000Y493500D02*
G03*
X451047Y493614I-114J114D01*
G01*
Y494000D01*
Y502000D01*
X456953D02*
G03*
X456500Y500907I1093J-1093D01*
G01*
X457000Y502000D02*
G03*
X456953Y501886I114J-114D01*
G01*
Y494000D01*
X451047D02*
X449642D01*
X457000Y501886D02*
G03*
X456953Y502000I-161J0D01*
G01*
X457000Y502000D02*
Y502858D01*
D02*
G03*
X454071Y509929I-10000J0D01*
G01*
X452021Y511979D01*
X450000Y516858D02*
G03*
X452021Y511979I6899J0D01*
G01*
X457000Y515000D02*
Y515500D01*
X461942Y517047D02*
G03*
X457000Y515000I0J-6990D01*
G01*
X464114Y517047D02*
G03*
X464000Y517000I0J-161D01*
G01*
X464000Y517047D02*
X472000D01*
X472000Y517000D02*
X479858D01*
X472000Y523000D02*
G03*
X474500Y529036I-6036J6036D01*
G01*
Y532500D01*
X632500D01*
X642586D01*
X645000Y531500D02*
G03*
X642586Y532500I-2414J-2414D01*
G01*
X652000Y529586D02*
G03*
X651000Y532000I-3414J0D01*
G01*
X648265Y511453D02*
G03*
X652000Y513000I0J5283D01*
G01*
X648265Y511453D02*
X645386D01*
D02*
G03*
X645500Y511500I0J161D01*
G01*
X645386Y511453D02*
X587000D01*
X587000Y511500D02*
X568000D01*
D02*
G03*
X569207Y511000I1207J1207D01*
G01*
X570858Y511500D02*
X568000D01*
Y512000D01*
Y511500D02*
Y502142D01*
D02*
G03*
X570929Y495071I10000J0D01*
G01*
X580071Y485929D01*
D02*
G03*
X587142Y483000I7071J7071D01*
G01*
X591000D01*
X636358D01*
X643429Y480071D02*
G03*
X636358Y483000I-7071J-7071D01*
G01*
X643429Y480071D02*
X646250Y477250D01*
X648071Y475429D01*
X646250Y477250D02*
X651071Y472429D01*
X654000Y465358D02*
G03*
X651071Y472429I-10000J0D01*
G01*
X625500Y460500D02*
G03*
X619000Y467000I-6500J0D01*
G01*
D02*
G03*
X619500Y467500I0J500D01*
G01*
X619000Y467000D02*
G03*
X618000Y468000I-1000J0D01*
G01*
X566000D01*
X591000Y482500D02*
Y483000D01*
X614429Y502571D02*
X614500Y502500D01*
X636000Y505047D02*
X652405D01*
D02*
G03*
X659476Y507976I0J10000D01*
G01*
X659571Y508071D01*
D02*
G03*
X662500Y515142I-7071J7071D01*
G01*
Y532500D01*
X675000D01*
X685000Y522500D02*
G03*
X675000Y532500I-10000J0D01*
G01*
X685000Y522500D02*
Y507500D01*
X662500Y532500D02*
X662000D01*
X625500Y460500D02*
Y387500D01*
X653118Y362118D02*
G03*
X656047Y369189I-7071J7071D01*
G01*
X653118Y362118D02*
X647500Y356500D01*
X648071Y357071D01*
X647500Y356500D02*
X633929Y342929D01*
X626858Y340000D02*
G03*
X633929Y342929I0J10000D01*
G01*
X626858Y340000D02*
X616358D01*
X616000D01*
X498000D01*
X542500Y352000D02*
Y353858D01*
X545429Y360929D02*
G03*
X542500Y353858I7071J-7071D01*
G01*
X557500Y373000D02*
X545429Y360929D01*
X547000Y373500D02*
Y374858D01*
X547071Y373828D02*
G03*
X547000Y374000I-243J0D01*
G01*
X547071Y373828D02*
Y373571D01*
D02*
G03*
X550000Y380642I-7071J7071D01*
G01*
Y426000D01*
X587000Y505500D02*
G03*
X586886Y505547I-114J-114D01*
G01*
X652500Y395500D02*
X653000D01*
X652750Y395750D01*
X652500Y395500D02*
X653071Y394929D01*
X661953Y385350D02*
Y382500D01*
Y381095D01*
Y371614D02*
G03*
X662000Y371500I161J0D01*
G01*
X474500Y537000D02*
Y532500D01*
X472000Y523000D02*
X455414D01*
X453000Y524000D02*
G03*
X455414Y523000I2414J2414D01*
G01*
X452929Y523929D02*
G03*
X450000Y516858I7071J-7071D01*
G01*
X453000Y524000D02*
G03*
X451293Y523293I0J-2414D01*
G01*
X452929Y523929D02*
X453000Y524000D01*
X461942Y517047D02*
X464000D01*
X465976Y534524D02*
X466000Y534500D01*
X464929Y535571D01*
X474386Y544953D02*
G03*
X474500Y545000I0J161D01*
G01*
X474386Y544953D02*
X454000D01*
X446000D01*
X435500Y507000D02*
X417500D01*
X413929Y510571D01*
X411000Y517642D02*
G03*
X413929Y510571I10000J0D01*
G01*
X426000Y501000D02*
X435886D01*
D02*
G03*
X436000Y501047I0J161D01*
G01*
Y501047D02*
Y498642D01*
X411000Y517642D02*
Y531886D01*
X411047Y532000D02*
G03*
X411000Y531886I114J-114D01*
G01*
X411047Y532000D02*
G03*
X411000Y531886I114J-114D01*
G01*
X346000Y553000D02*
X342429Y556571D01*
D14*
X436000Y501047D02*
D03*
X426000Y507000D02*
D03*
D16*
X432000Y466536D02*
G03*
X434500Y460500I8535J0D01*
G01*
X452000Y469047D02*
X422114D01*
X436000Y498642D02*
G03*
X438929Y491571I10000J0D01*
G01*
X449642Y494000D02*
G03*
X442571Y491071I0J-10000D01*
G01*
X417500Y517000D02*
Y522879D01*
Y532000D01*
Y538500D01*
X457858D01*
X464929Y535571D02*
G03*
X457858Y538500I-7071J-7071D01*
G01*
X417500Y554500D02*
G03*
X407500Y564500I-10000J0D01*
G01*
X375000D01*
X417500Y538500D02*
Y554500D01*
X488000Y491047D02*
X498000D01*
X493500Y491000D02*
Y485500D01*
X577000Y505547D02*
X586886D01*
X587000Y505500D02*
X607358D01*
X614429Y502571D02*
G03*
X607358Y505500I-7071J-7071D01*
G01*
X614500Y502500D02*
X627964D01*
D02*
G03*
X634000Y505000I0J8535D01*
G01*
X652000Y518953D02*
Y529586D01*
X650953Y532000D02*
Y569405D01*
D02*
G03*
X648024Y576476I-10000J0D01*
G01*
X605429Y619071D01*
D02*
G03*
X598358Y622000I-7071J-7071D01*
G01*
X432500D01*
X430000Y641047D02*
X439453D01*
X421500Y658000D02*
X406953D01*
X654000Y423000D02*
Y434500D01*
D17*
X452000Y469047D02*
D03*
Y474953D02*
D03*
X442000Y474953D02*
D03*
Y469047D02*
D03*
X432000D02*
D03*
Y474953D02*
D03*
X422000Y474953D02*
D03*
Y469047D02*
D03*
X436000Y501047D02*
D03*
Y506953D02*
D03*
X426000D02*
D03*
Y501047D02*
D03*
X446000Y539047D02*
D03*
Y544953D02*
D03*
X454000D02*
D03*
Y539047D02*
D03*
X464000Y522953D02*
D03*
Y517047D02*
D03*
X472000D02*
D03*
Y522953D02*
D03*
X488000Y496953D02*
D03*
Y491047D02*
D03*
X498000D02*
D03*
Y496953D02*
D03*
X577000Y505547D02*
D03*
Y511453D02*
D03*
X587000D02*
D03*
Y505547D02*
D03*
X630000Y482000D02*
D03*
X652000Y513047D02*
D03*
Y518953D02*
D03*
X636000Y510953D02*
D03*
Y505047D02*
D03*
X430000Y641047D02*
D03*
Y646953D02*
D03*
X230000Y540000D02*
D03*
D18*
X451047Y494000D02*
D03*
X456953D02*
D03*
Y502000D02*
D03*
X451047D02*
D03*
X416953Y524000D02*
D03*
X411047D02*
D03*
Y532000D02*
D03*
X416953D02*
D03*
X406953Y658000D02*
D03*
X401047D02*
D03*
X645047Y532000D02*
D03*
X650953D02*
D03*
X656047Y382500D02*
D03*
X661953D02*
D03*
D31*
X567000Y373500D02*
D03*
X570000Y426000D02*
D03*
X602000Y438500D02*
D03*
X639000Y428500D02*
D03*
X336000Y553000D02*
D03*
D32*
X498000Y340000D02*
D03*
Y350000D02*
D03*
X547000Y373500D02*
D03*
X552343Y352000D02*
D03*
X557000Y373500D02*
D03*
X616000Y350000D02*
D03*
Y340000D02*
D03*
X667343Y351500D02*
D03*
X659000Y428500D02*
D03*
X649000D02*
D03*
X592000Y438500D02*
D03*
X560000Y426000D02*
D03*
X550000D02*
D03*
X386000Y553000D02*
D03*
X376000D02*
D03*
X366000D02*
D03*
X356000D02*
D03*
X346000D02*
D03*
X277000Y560500D02*
D03*
Y550500D02*
D03*
X304000Y674000D02*
D03*
D33*
X498000Y330000D02*
D03*
X542500Y352000D02*
D03*
X616000Y330000D02*
D03*
X657500Y351500D02*
D03*
X304000Y684000D02*
D03*
X277000Y570500D02*
D03*
D34*
X469701Y658606D02*
D03*
X422299D02*
D03*
D35*
X441079Y640063D02*
D03*
D36*
X450921Y640063D02*
D03*
Y647937D02*
D03*
X441079D02*
D03*
D37*
X522421Y331921D02*
D03*
X562579D02*
D03*
X637421Y331421D02*
D03*
X677579D02*
D03*
D38*
X440000Y412500D02*
D03*
X434500Y460500D02*
D03*
X457000Y485000D02*
D03*
Y515500D02*
D03*
X453000Y524000D02*
D03*
X466000Y534500D02*
D03*
X494000Y527000D02*
D03*
X493752Y485748D02*
D03*
X441000Y489500D02*
D03*
X432500Y484000D02*
D03*
X417500Y507000D02*
D03*
X417827Y484307D02*
D03*
X426000Y484500D02*
D03*
X417500Y517000D02*
D03*
X390000Y479000D02*
D03*
X375000Y564500D02*
D03*
X410000Y570000D02*
D03*
X417500Y575000D02*
D03*
X427500Y586500D02*
D03*
X460500Y589500D02*
D03*
X447500Y614500D02*
D03*
X432500Y622000D02*
D03*
Y630000D02*
D03*
X401000Y685500D02*
D03*
X390000Y649500D02*
D03*
X377500Y613500D02*
D03*
X335000Y643000D02*
D03*
X303500Y651000D02*
D03*
X270500Y639000D02*
D03*
X284000Y462500D02*
D03*
X566000Y468000D02*
D03*
X591000Y483000D02*
D03*
X619000Y467000D02*
D03*
X614500Y502500D02*
D03*
X632500Y532500D02*
D03*
X662000D02*
D03*
X685000Y507500D02*
D03*
X652500Y395500D02*
D03*
X664500Y391500D02*
D03*
X662000Y370000D02*
D03*
X625500Y387500D02*
D03*
X568000Y511500D02*
D03*
D39*
X223500Y324000D02*
D03*
Y679500D02*
D03*
X676000Y677500D02*
D03*
D40*
X656047Y369189D02*
Y382500D01*
X656000D02*
Y387858D01*
D02*
G03*
X653071Y394929I-10000J0D01*
G01*
X652500Y395500D02*
G03*
X654000Y399121I-3621J3621D01*
G01*
Y423000D01*
Y434500D02*
Y465358D01*
X664500Y391500D02*
G03*
X661953Y385350I6150J-6150D01*
G01*
Y382500D02*
Y371614D01*
M02*
