%FSLAX25Y25*%
%MOIN*%
G70*
G01*
G75*
%ADD10C,0.01200*%
%ADD11C,0.01100*%
%ADD12C,0.00800*%
%ADD13C,0.00800*%
%ADD14C,0.01200*%
%ADD15C,0.01000*%
%ADD16C,0.02000*%
%ADD17R,0.05512X0.04331*%
%ADD18R,0.04331X0.05512*%
%ADD19O,0.02362X0.05906*%
%ADD20R,0.09055X0.02362*%
%ADD21O,0.02756X0.09843*%
%ADD22R,0.07100X0.07900*%
%ADD23O,0.01181X0.07087*%
%ADD24O,0.07087X0.01181*%
%ADD25O,0.07087X0.02165*%
%ADD26R,0.01772X0.08071*%
%ADD27R,0.01772X0.08071*%
%ADD28R,0.12362X0.09055*%
%ADD29R,0.02000X0.02000*%
%ADD30R,0.04724X0.07874*%
%ADD31R,0.05906X0.05906*%
%ADD32C,0.05906*%
%ADD33R,0.05906X0.05906*%
%ADD34C,0.14961*%
%ADD35R,0.06299X0.06299*%
%ADD36C,0.06299*%
%ADD37C,0.12992*%
%ADD38C,0.05000*%
%ADD39C,0.19685*%
%ADD40C,0.04000*%
%ADD41C,0.02362*%
%ADD42C,0.00984*%
%ADD43C,0.00787*%
%ADD44C,0.00098*%
%ADD45C,0.00098*%
%ADD46R,0.06312X0.05131*%
%ADD47R,0.05131X0.06312*%
%ADD48O,0.03162X0.06706*%
%ADD49R,0.09855X0.03162*%
%ADD50O,0.03556X0.10642*%
%ADD51R,0.07900X0.08700*%
%ADD52O,0.01981X0.07887*%
%ADD53O,0.07887X0.01981*%
%ADD54O,0.07887X0.02965*%
%ADD55R,0.02572X0.08871*%
%ADD56R,0.02572X0.08871*%
%ADD57R,0.13162X0.09855*%
%ADD58R,0.02800X0.02800*%
%ADD59R,0.05524X0.08674*%
%ADD60R,0.06706X0.06706*%
%ADD61C,0.06706*%
%ADD62R,0.06706X0.06706*%
%ADD63C,0.15761*%
%ADD64R,0.07099X0.07099*%
%ADD65C,0.07099*%
%ADD66C,0.13792*%
%ADD67C,0.05800*%
%ADD68C,0.20485*%
%ADD69C,0.00667*%
%ADD70C,0.01600*%
D44*
X223500Y319000D02*
Y329000D01*
X218500Y324000D02*
X228500D01*
X282600Y462500D02*
X285400D01*
X284000Y461100D02*
Y463900D01*
X277000Y548728D02*
Y552272D01*
Y558728D02*
Y562272D01*
X275228Y560500D02*
X278772D01*
Y550500D02*
X275228D01*
Y570500D02*
X278772D01*
X277000Y568728D02*
Y572272D01*
X334228Y553000D02*
X337772D01*
X336000Y551228D02*
Y554772D01*
X344228Y553000D02*
X347772D01*
X346000Y551228D02*
Y554772D01*
X354228Y553000D02*
X357772D01*
X364228D02*
X367772D01*
X366000Y551228D02*
Y554772D01*
X374228Y553000D02*
X377772D01*
X376000Y551228D02*
Y554772D01*
X384228Y553000D02*
X387772D01*
X386000Y551228D02*
Y554772D01*
X376400Y564500D02*
X373600D01*
X375000Y563100D02*
Y565900D01*
X356000Y554772D02*
Y551228D01*
X408600Y570000D02*
X411400D01*
X416100Y575000D02*
X418900D01*
X417500Y573600D02*
Y576400D01*
X427500Y585100D02*
Y587900D01*
X426100Y586500D02*
X428900D01*
X459100Y589500D02*
X461900D01*
X460500Y588100D02*
Y590900D01*
X447500Y613100D02*
Y615900D01*
X446100Y614500D02*
X448900D01*
X450921Y638252D02*
Y641874D01*
X449110Y640063D02*
X452732D01*
X450921Y646126D02*
Y649748D01*
X449110Y647937D02*
X452732D01*
X469701Y654079D02*
Y663134D01*
X465173Y658606D02*
X474228D01*
X442890Y647937D02*
X439268D01*
X441079Y646126D02*
Y649748D01*
Y641874D02*
Y638252D01*
X433900Y630000D02*
X431100D01*
X432500Y628600D02*
Y631400D01*
Y623400D02*
Y620600D01*
X431100Y622000D02*
X433900D01*
X439268Y640063D02*
X442890D01*
X426827Y658606D02*
X417772D01*
X422299Y663134D02*
Y654079D01*
X401000Y684100D02*
Y686900D01*
X399600Y685500D02*
X402400D01*
X391400Y649500D02*
X388600D01*
X390000Y648100D02*
Y650900D01*
X378900Y613500D02*
X376100D01*
X377500Y612100D02*
Y614900D01*
X410000Y571400D02*
Y568600D01*
X416100Y517000D02*
X418900D01*
X417500Y518400D02*
Y515600D01*
Y508400D02*
Y505600D01*
X416100Y507000D02*
X418900D01*
X417827Y485707D02*
Y482907D01*
X416427Y484307D02*
X419227D01*
X424600Y484500D02*
X427400D01*
X426000Y483100D02*
Y485900D01*
X431100Y484000D02*
X433900D01*
X432500Y482600D02*
Y485400D01*
X439600Y489500D02*
X442400D01*
X441000Y488100D02*
Y490900D01*
X455600Y485000D02*
X458400D01*
X457000Y483600D02*
Y486400D01*
Y514100D02*
Y516900D01*
X453000Y522600D02*
Y525400D01*
X451600Y524000D02*
X454400D01*
X455600Y515500D02*
X458400D01*
X466000Y533100D02*
Y535900D01*
X464600Y534500D02*
X467400D01*
X492600Y527000D02*
X495400D01*
X494000Y525600D02*
Y528400D01*
X493752Y487148D02*
Y484348D01*
X492352Y485748D02*
X495152D01*
X435900Y460500D02*
X433100D01*
X434500Y459100D02*
Y461900D01*
X438600Y412500D02*
X441400D01*
X440000Y411100D02*
Y413900D01*
X390000Y477600D02*
Y480400D01*
X388600Y479000D02*
X391400D01*
X496228Y350000D02*
X499772D01*
Y340000D02*
X496228D01*
X498000Y341772D02*
Y338228D01*
Y331772D02*
Y328228D01*
X496228Y330000D02*
X499772D01*
X518484Y331921D02*
X526358D01*
X522421Y327984D02*
Y335858D01*
X540728Y352000D02*
X544272D01*
X542500Y350228D02*
Y353772D01*
X550571Y352000D02*
X554114D01*
X552343Y350228D02*
Y353772D01*
X558642Y331921D02*
X566516D01*
X562579Y327984D02*
Y335858D01*
X568772Y373500D02*
X565228D01*
X567000Y371728D02*
Y375272D01*
X557000D02*
Y371728D01*
X555228Y373500D02*
X558772D01*
X547000Y375272D02*
Y371728D01*
X545228Y373500D02*
X548772D01*
X570000Y424228D02*
Y427772D01*
X571772Y426000D02*
X568228D01*
X561772D02*
X558228D01*
X560000Y424228D02*
Y427772D01*
X551772Y426000D02*
X548228D01*
X550000Y424228D02*
Y427772D01*
X590228Y438500D02*
X593772D01*
X592000Y436728D02*
Y440272D01*
X600228Y438500D02*
X603772D01*
X637228Y428500D02*
X640772D01*
X639000Y430272D02*
Y426728D01*
X649000D02*
Y430272D01*
X647228Y428500D02*
X650772D01*
X659000Y426728D02*
Y430272D01*
X657228Y428500D02*
X660772D01*
X653900Y395500D02*
X651100D01*
X652500Y394100D02*
Y396900D01*
X663100Y391500D02*
X665900D01*
X664500Y390100D02*
Y392900D01*
X663400Y370000D02*
X660600D01*
X662000Y368600D02*
Y371400D01*
X659272Y351500D02*
X655728D01*
X641358Y331421D02*
X633484D01*
X637421Y327484D02*
Y335358D01*
X617772Y340000D02*
X614228D01*
X616000Y341772D02*
Y338228D01*
Y331772D02*
Y328228D01*
X614228Y330000D02*
X617772D01*
X616000Y348228D02*
Y351772D01*
X614228Y350000D02*
X617772D01*
X624100Y387500D02*
X626900D01*
X625500Y386100D02*
Y388900D01*
X657500Y353272D02*
Y349728D01*
X665571Y351500D02*
X669114D01*
X667343Y349728D02*
Y353272D01*
X673642Y331421D02*
X681516D01*
X677579Y327484D02*
Y335358D01*
X602000Y436728D02*
Y440272D01*
X617600Y467000D02*
X620400D01*
X619000Y465600D02*
Y468400D01*
X591000Y481600D02*
Y484400D01*
X589600Y483000D02*
X592400D01*
X613100Y502500D02*
X615900D01*
X614500Y501100D02*
Y503900D01*
X631100Y532500D02*
X633900D01*
X632500Y531100D02*
Y533900D01*
X660600Y532500D02*
X663400D01*
X662000Y531100D02*
Y533900D01*
X683600Y507500D02*
X686400D01*
X685000Y506100D02*
Y508900D01*
X569400Y511500D02*
X566600D01*
X568000Y510100D02*
Y512900D01*
X567400Y468000D02*
X564600D01*
X566000Y466600D02*
Y469400D01*
X498000Y351772D02*
Y348228D01*
X270500Y637600D02*
Y640400D01*
X271900Y639000D02*
X269100D01*
X302100Y651000D02*
X304900D01*
X333600Y643000D02*
X336400D01*
X335000Y641600D02*
Y644400D01*
X305772Y674000D02*
X302228D01*
X304000Y675772D02*
Y672228D01*
X303500Y652400D02*
Y649600D01*
X305772Y684000D02*
X302228D01*
X304000Y682228D02*
Y685772D01*
X228500Y679500D02*
X218500D01*
X223500Y674500D02*
Y684500D01*
X671000Y677500D02*
X681000D01*
X676000Y682500D02*
Y672500D01*
M02*
