%FSLAX25Y25*%
%MOIN*%
G70*
G01*
G75*
G04 Layer_Color=8388736*
%ADD10C,0.01200*%
%ADD11C,0.01100*%
%ADD12C,0.00800*%
%ADD13C,0.00800*%
%ADD14C,0.01200*%
%ADD15C,0.01000*%
%ADD16C,0.02000*%
%ADD17R,0.05512X0.04331*%
%ADD18R,0.04331X0.05512*%
%ADD19O,0.02362X0.05906*%
%ADD20R,0.09055X0.02362*%
%ADD21O,0.02756X0.09843*%
%ADD22R,0.07100X0.07900*%
%ADD23O,0.01181X0.07087*%
%ADD24O,0.07087X0.01181*%
%ADD25O,0.07087X0.02165*%
%ADD26R,0.01772X0.08071*%
%ADD27R,0.01772X0.08071*%
%ADD28R,0.12362X0.09055*%
%ADD29R,0.02000X0.02000*%
%ADD30R,0.04724X0.07874*%
%ADD31R,0.05906X0.05906*%
%ADD32C,0.05906*%
%ADD33R,0.05906X0.05906*%
%ADD34C,0.14961*%
%ADD35R,0.06299X0.06299*%
%ADD36C,0.06299*%
%ADD37C,0.12992*%
%ADD38C,0.05000*%
%ADD39C,0.19685*%
%ADD40C,0.04000*%
%ADD41C,0.02362*%
%ADD42C,0.00984*%
%ADD43C,0.00787*%
%ADD44C,0.00098*%
%ADD45C,0.00098*%
%ADD46R,0.06312X0.05131*%
%ADD47R,0.05131X0.06312*%
%ADD48O,0.03162X0.06706*%
%ADD49R,0.09855X0.03162*%
%ADD50O,0.03556X0.10642*%
%ADD51R,0.07900X0.08700*%
%ADD52O,0.01981X0.07887*%
%ADD53O,0.07887X0.01981*%
%ADD54O,0.07887X0.02965*%
%ADD55R,0.02572X0.08871*%
%ADD56R,0.02572X0.08871*%
%ADD57R,0.13162X0.09855*%
%ADD58R,0.02800X0.02800*%
%ADD59R,0.05524X0.08674*%
%ADD60R,0.06706X0.06706*%
%ADD61C,0.06706*%
%ADD62R,0.06706X0.06706*%
%ADD63C,0.15761*%
%ADD64R,0.07099X0.07099*%
%ADD65C,0.07099*%
%ADD66C,0.13792*%
%ADD67C,0.05800*%
%ADD68C,0.20485*%
G36*
X324500Y587000D02*
X320500Y583500D01*
X307500D01*
X303500Y587500D01*
Y591500D01*
X308000D01*
Y589500D01*
X309500Y588000D01*
X318500D01*
X320000Y589500D01*
Y591500D01*
X324500D01*
Y587000D01*
D02*
G37*
G36*
X248500D02*
X244500Y583500D01*
X231500D01*
X227500Y587500D01*
Y591500D01*
X232000D01*
Y589500D01*
X233500Y588000D01*
X242500D01*
X244000Y589500D01*
Y591500D01*
X248500D01*
Y587000D01*
D02*
G37*
G36*
X324500Y600500D02*
Y596500D01*
X320000D01*
Y598500D01*
X318500Y600000D01*
X309500D01*
X308000Y598500D01*
Y596500D01*
X303500D01*
Y601000D01*
X307500Y604500D01*
X320500D01*
X324500Y600500D01*
D02*
G37*
G36*
X248500D02*
Y596500D01*
X244000D01*
Y598500D01*
X242500Y600000D01*
X233500D01*
X232000Y598500D01*
Y596500D01*
X227500D01*
Y601000D01*
X231500Y604500D01*
X244500D01*
X248500Y600500D01*
D02*
G37*
D46*
X440000Y397047D02*
D03*
Y402953D02*
D03*
X451000D02*
D03*
Y397047D02*
D03*
X461000D02*
D03*
Y402953D02*
D03*
X471000D02*
D03*
Y397047D02*
D03*
X481000D02*
D03*
Y402953D02*
D03*
X491000D02*
D03*
Y397047D02*
D03*
X501000D02*
D03*
Y402953D02*
D03*
X511000D02*
D03*
Y397047D02*
D03*
X521000D02*
D03*
Y402953D02*
D03*
X521000Y414047D02*
D03*
Y419953D02*
D03*
X511000D02*
D03*
Y414047D02*
D03*
X501000D02*
D03*
Y419953D02*
D03*
X491000D02*
D03*
Y414047D02*
D03*
X481000D02*
D03*
Y419953D02*
D03*
X471000D02*
D03*
Y414047D02*
D03*
X461000D02*
D03*
Y419953D02*
D03*
X451000D02*
D03*
Y414047D02*
D03*
X382000Y481953D02*
D03*
Y476047D02*
D03*
X372000Y481953D02*
D03*
Y476047D02*
D03*
X292500Y475953D02*
D03*
Y470047D02*
D03*
X282500Y470047D02*
D03*
Y475953D02*
D03*
X376000Y573047D02*
D03*
Y578953D02*
D03*
X402000Y575953D02*
D03*
Y570047D02*
D03*
X418000Y564000D02*
D03*
X414000Y582047D02*
D03*
Y587953D02*
D03*
X402000Y586047D02*
D03*
Y591953D02*
D03*
X388000Y607047D02*
D03*
Y612953D02*
D03*
Y597953D02*
D03*
Y592047D02*
D03*
X400000Y635047D02*
D03*
Y640953D02*
D03*
X390000Y640953D02*
D03*
Y635047D02*
D03*
X334000Y596953D02*
D03*
Y591047D02*
D03*
X298500Y638047D02*
D03*
X298500Y619953D02*
D03*
Y614047D02*
D03*
X298500Y643953D02*
D03*
X280500Y662500D02*
D03*
X223500Y643953D02*
D03*
Y638047D02*
D03*
X223500Y619953D02*
D03*
Y614047D02*
D03*
X258000Y592953D02*
D03*
Y587047D02*
D03*
X470000Y548000D02*
D03*
X596000Y412953D02*
D03*
Y407047D02*
D03*
Y400953D02*
D03*
Y395047D02*
D03*
Y381953D02*
D03*
Y376047D02*
D03*
Y367953D02*
D03*
Y362047D02*
D03*
X642000Y401047D02*
D03*
Y406953D02*
D03*
X677000Y381453D02*
D03*
Y375547D02*
D03*
X620000Y514047D02*
D03*
Y519953D02*
D03*
X611000Y520047D02*
D03*
Y525953D02*
D03*
X600000D02*
D03*
Y520047D02*
D03*
D47*
X491047Y537000D02*
D03*
X496953D02*
D03*
X438953Y612000D02*
D03*
X433047D02*
D03*
X448953Y622000D02*
D03*
X443047D02*
D03*
X325453Y667000D02*
D03*
X319547D02*
D03*
X252453Y665000D02*
D03*
X246547D02*
D03*
X222000Y576000D02*
D03*
X334000Y580000D02*
D03*
X595047Y424500D02*
D03*
X600953D02*
D03*
X609047Y387500D02*
D03*
X614953D02*
D03*
Y363000D02*
D03*
X609047D02*
D03*
X637047Y390000D02*
D03*
X642953D02*
D03*
X677047D02*
D03*
X682953D02*
D03*
X659000Y414500D02*
D03*
X604953Y467000D02*
D03*
X604953Y475000D02*
D03*
X621047Y496000D02*
D03*
X626953D02*
D03*
X604953Y505000D02*
D03*
Y497000D02*
D03*
X604953Y483000D02*
D03*
X599047Y505000D02*
D03*
Y497000D02*
D03*
X599047Y483000D02*
D03*
X599047Y475000D02*
D03*
X599047Y467000D02*
D03*
D48*
X653000Y382173D02*
D03*
X658000D02*
D03*
X663000D02*
D03*
X668000D02*
D03*
Y403827D02*
D03*
X663000D02*
D03*
X658000D02*
D03*
X653000D02*
D03*
D49*
X544087Y466500D02*
D03*
Y471500D02*
D03*
Y476500D02*
D03*
Y481500D02*
D03*
Y486500D02*
D03*
Y491500D02*
D03*
Y496500D02*
D03*
Y501500D02*
D03*
Y506500D02*
D03*
Y511500D02*
D03*
Y516500D02*
D03*
Y521500D02*
D03*
Y526500D02*
D03*
Y531500D02*
D03*
X579913Y496500D02*
D03*
Y491500D02*
D03*
Y486500D02*
D03*
Y481500D02*
D03*
Y476500D02*
D03*
Y471500D02*
D03*
Y466500D02*
D03*
Y501500D02*
D03*
Y506500D02*
D03*
Y511500D02*
D03*
Y516500D02*
D03*
Y521500D02*
D03*
Y526500D02*
D03*
Y531500D02*
D03*
D50*
X326000Y631354D02*
D03*
Y650646D02*
D03*
X321000D02*
D03*
X316000D02*
D03*
X311000D02*
D03*
Y631354D02*
D03*
X316000D02*
D03*
X321000D02*
D03*
X253000Y650646D02*
D03*
Y631354D02*
D03*
X248000Y650646D02*
D03*
X243000D02*
D03*
X238000D02*
D03*
Y631354D02*
D03*
X243000D02*
D03*
X248000D02*
D03*
D51*
X500000Y548500D02*
D03*
Y565500D02*
D03*
X480000D02*
D03*
Y548500D02*
D03*
D52*
X445843Y475276D02*
D03*
X447811D02*
D03*
X449780D02*
D03*
X451748D02*
D03*
X453717D02*
D03*
X455685D02*
D03*
X457654D02*
D03*
X459622D02*
D03*
X443874D02*
D03*
X441905D02*
D03*
X439937D02*
D03*
X437968D02*
D03*
X436000D02*
D03*
X434031D02*
D03*
X432063D02*
D03*
X430094D02*
D03*
X428126D02*
D03*
X426158D02*
D03*
X424189D02*
D03*
X422221D02*
D03*
X420252D02*
D03*
X418284D02*
D03*
X416315D02*
D03*
X414347D02*
D03*
X412378D02*
D03*
X445843Y534724D02*
D03*
X447811D02*
D03*
X449780D02*
D03*
X451748D02*
D03*
X453717D02*
D03*
X455685D02*
D03*
X457654D02*
D03*
X459622D02*
D03*
X443874D02*
D03*
X441905D02*
D03*
X439937D02*
D03*
X437968D02*
D03*
X436000D02*
D03*
X434031D02*
D03*
X432063D02*
D03*
X430094D02*
D03*
X428126D02*
D03*
X426158D02*
D03*
X424189D02*
D03*
X422221D02*
D03*
X420252D02*
D03*
X418284D02*
D03*
X416315D02*
D03*
X414347D02*
D03*
X412378D02*
D03*
D53*
X465724Y481378D02*
D03*
Y483347D02*
D03*
Y485315D02*
D03*
Y487284D02*
D03*
Y489252D02*
D03*
Y491221D02*
D03*
Y493189D02*
D03*
Y495157D02*
D03*
Y497126D02*
D03*
Y499094D02*
D03*
Y501063D02*
D03*
Y503031D02*
D03*
Y505000D02*
D03*
Y506968D02*
D03*
Y508937D02*
D03*
Y510906D02*
D03*
Y512874D02*
D03*
Y514843D02*
D03*
Y516811D02*
D03*
Y518780D02*
D03*
Y520748D02*
D03*
Y522717D02*
D03*
Y524685D02*
D03*
Y526653D02*
D03*
Y528622D02*
D03*
X406276D02*
D03*
Y526653D02*
D03*
Y524685D02*
D03*
Y522717D02*
D03*
Y520748D02*
D03*
Y518780D02*
D03*
Y516811D02*
D03*
Y514843D02*
D03*
Y512874D02*
D03*
Y510906D02*
D03*
Y508937D02*
D03*
Y506968D02*
D03*
Y505000D02*
D03*
Y503031D02*
D03*
Y501063D02*
D03*
Y499094D02*
D03*
Y497126D02*
D03*
Y495157D02*
D03*
Y493189D02*
D03*
Y491221D02*
D03*
Y489252D02*
D03*
Y487284D02*
D03*
Y485315D02*
D03*
Y483347D02*
D03*
Y481378D02*
D03*
D54*
X350441Y441929D02*
D03*
Y445079D02*
D03*
Y448228D02*
D03*
Y451378D02*
D03*
Y454528D02*
D03*
Y457677D02*
D03*
Y460827D02*
D03*
Y463976D02*
D03*
Y467126D02*
D03*
Y470276D02*
D03*
Y473425D02*
D03*
Y476575D02*
D03*
Y479724D02*
D03*
Y482874D02*
D03*
Y486024D02*
D03*
Y489173D02*
D03*
Y492323D02*
D03*
Y495472D02*
D03*
Y498622D02*
D03*
Y501772D02*
D03*
Y504921D02*
D03*
Y508071D02*
D03*
X305559D02*
D03*
Y504921D02*
D03*
Y501772D02*
D03*
Y498622D02*
D03*
Y495472D02*
D03*
Y492323D02*
D03*
Y489173D02*
D03*
Y486024D02*
D03*
Y482874D02*
D03*
Y479724D02*
D03*
Y476575D02*
D03*
Y473425D02*
D03*
Y470276D02*
D03*
Y467126D02*
D03*
Y463976D02*
D03*
Y460827D02*
D03*
Y457677D02*
D03*
Y454528D02*
D03*
Y451378D02*
D03*
Y448228D02*
D03*
Y445079D02*
D03*
Y441929D02*
D03*
D55*
X427366Y571910D02*
D03*
D56*
X447839Y571910D02*
D03*
X450398D02*
D03*
X452957D02*
D03*
X455516D02*
D03*
X458075D02*
D03*
X460634D02*
D03*
Y598091D02*
D03*
X458075D02*
D03*
X455516D02*
D03*
X452957D02*
D03*
X450398D02*
D03*
X447839D02*
D03*
X445280D02*
D03*
X442721D02*
D03*
X440162D02*
D03*
X437602D02*
D03*
X435043D02*
D03*
X432484D02*
D03*
X429925D02*
D03*
Y571910D02*
D03*
X432484D02*
D03*
X435043D02*
D03*
X437602D02*
D03*
X440162D02*
D03*
X442721D02*
D03*
X445280D02*
D03*
X427366Y598091D02*
D03*
D57*
X347413Y618000D02*
D03*
X331587D02*
D03*
X273413Y616000D02*
D03*
X257587D02*
D03*
D58*
X314000Y584000D02*
D03*
Y604000D02*
D03*
X238000D02*
D03*
Y584000D02*
D03*
D59*
X388000Y670520D02*
D03*
Y685480D02*
D03*
X352000D02*
D03*
Y670520D02*
D03*
X272000Y685480D02*
D03*
Y670520D02*
D03*
D60*
X567000Y373500D02*
D03*
X570000Y426000D02*
D03*
X602000Y438500D02*
D03*
X639000Y428500D02*
D03*
X336000Y553000D02*
D03*
D61*
X498000Y340000D02*
D03*
Y350000D02*
D03*
X547000Y373500D02*
D03*
X552343Y352000D02*
D03*
X557000Y373500D02*
D03*
X616000Y350000D02*
D03*
Y340000D02*
D03*
X667343Y351500D02*
D03*
X659000Y428500D02*
D03*
X649000D02*
D03*
X592000Y438500D02*
D03*
X560000Y426000D02*
D03*
X550000D02*
D03*
X386000Y553000D02*
D03*
X376000D02*
D03*
X366000D02*
D03*
X356000D02*
D03*
X346000D02*
D03*
X277000Y560500D02*
D03*
Y550500D02*
D03*
X304000Y674000D02*
D03*
D62*
X498000Y330000D02*
D03*
X542500Y352000D02*
D03*
X616000Y330000D02*
D03*
X657500Y351500D02*
D03*
X304000Y684000D02*
D03*
X277000Y570500D02*
D03*
D63*
X469701Y658606D02*
D03*
X422299D02*
D03*
D64*
X441079Y640063D02*
D03*
D65*
X450921Y640063D02*
D03*
Y647937D02*
D03*
X441079D02*
D03*
D66*
X522421Y331921D02*
D03*
X562579D02*
D03*
X637421Y331421D02*
D03*
X677579D02*
D03*
D67*
X440000Y412500D02*
D03*
X434500Y460500D02*
D03*
X457000Y485000D02*
D03*
Y515500D02*
D03*
X453000Y524000D02*
D03*
X466000Y534500D02*
D03*
X494000Y527000D02*
D03*
X493752Y485748D02*
D03*
X441000Y489500D02*
D03*
X432500Y484000D02*
D03*
X417500Y507000D02*
D03*
X417827Y484307D02*
D03*
X426000Y484500D02*
D03*
X417500Y517000D02*
D03*
X390000Y479000D02*
D03*
X375000Y564500D02*
D03*
X410000Y570000D02*
D03*
X417500Y575000D02*
D03*
X427500Y586500D02*
D03*
X460500Y589500D02*
D03*
X447500Y614500D02*
D03*
X432500Y622000D02*
D03*
Y630000D02*
D03*
X401000Y685500D02*
D03*
X390000Y649500D02*
D03*
X377500Y613500D02*
D03*
X335000Y643000D02*
D03*
X303500Y651000D02*
D03*
X270500Y639000D02*
D03*
X284000Y462500D02*
D03*
X566000Y468000D02*
D03*
X591000Y483000D02*
D03*
X619000Y467000D02*
D03*
X614500Y502500D02*
D03*
X632500Y532500D02*
D03*
X662000D02*
D03*
X685000Y507500D02*
D03*
X652500Y395500D02*
D03*
X664500Y391500D02*
D03*
X662000Y370000D02*
D03*
X625500Y387500D02*
D03*
X568000Y511500D02*
D03*
D68*
X223500Y324000D02*
D03*
Y679500D02*
D03*
X676000Y677500D02*
D03*
M02*
