M48
;Layer_Color=9474304
;FILE_FORMAT=2:5
INCH,LZ
;TYPE=PLATED
T1F00S00C0.02800
T2F00S00C0.03543
T3F00S00C0.03622
T4F00S00C0.07874
T5F00S00C0.09055
T6F00S00C0.10000
%
T01
X0284Y04625
X04345Y04605
X044Y04125
X0566Y0468
X0619Y0467
X06255Y03875
X06525Y03955
X06645Y03915
X0662Y037
X0685Y05075
X0662Y05325
X06325
X06145Y05025
X0591Y0483
X0568Y05115
X0494Y0527
X0493752Y0485748
X0457Y0485
X0441Y04895
X04325Y0484
X0426Y04845
X0417827Y0484307
X04175Y0507
Y0517
X0457Y05155
X0453Y0524
X0466Y05345
X04605Y05895
X04275Y05865
X04175Y0575
X041Y057
X0375Y05645
X03775Y06135
X04325Y0622
X04475Y06145
X039Y0479
X03035Y0651
X02705Y0639
X0335Y0643
X039Y06495
X0401Y06855
X04325Y063
T02
X0498Y033
Y034
Y035
X05425Y0352
X0552343
X0557Y03735
X0547
X0567
X057Y0426
X056
X055
X0592Y04385
X0602
X0616Y035
Y034
Y033
X06575Y03515
X0667343
X0659Y04285
X0649
X0639
X0386Y0553
X0376
X0366
X0356
X0346
X0336
X0277Y05505
Y05605
Y05705
X0304Y0674
Y0684
T03
X0441079Y0640063
Y0647937
X0450921
Y0640063
T04
X0522421Y0331921
X0562579
X0637421Y0331421
X0677579
T05
X0422299Y0658606
X0469701
T06
X02235Y0324
Y06795
X0676Y06775
M30
